<svg version="1.1" id="Layer_1" xmlns="http://www.w3.org/2000/svg" xmlns:xlink="http://www.w3.org/1999/xlink" x="0px" y="0px" viewBox="-284 62 390 437" style="enable-background:new -284 62 390 437;" xml:space="preserve">

        <style type="text/css">

          .st0 {
            fill: #FF9190;
          }

          .st1 {
            fill: none;
            stroke: #D5767D;
            stroke-width: 3;
            stroke-linecap: round;
            stroke-linejoin: round;
            stroke-miterlimit: 10;
          }

          .st17 {
            fill: #000;
            stroke-miterlimit: 10;
            fill-opacity: 0.2;
            opacity: 0;
          }

          .st17:hover {
            opacity: 0.4;
          }

          .st16 {
            fill: #000;
            stroke-miterlimit: 10;
            fill-opacity: 0.2;
            opacity: 0;
          }

          .st16:hover {
            opacity: 0.4;
          }

          .st4 {
            fill: #000;
            stroke-miterlimit: 10;
            fill-opacity: 0.2;
            opacity: 0;
          }

          .st4:hover {
            opacity: 0.4;
          }

          .st5 {
            fill: #000;
            stroke-miterlimit: 10;
            fill-opacity: 0.2;
            opacity: 0;
          }

          .st5:hover {
            opacity: 0.4;
          }

          .st6 {
            fill: #000;
            stroke-miterlimit: 10;
            fill-opacity: 0.2;
            opacity: 0;
          }

          .st6:hover {
            opacity: 0.4;
          }

          .st7 {
            fill: #000;
            stroke-miterlimit: 10;
            fill-opacity: 0.2;
            opacity: 0;
          }

          .st7:hover {
            opacity: 0.4;
          }

          .st8 {
            fill: #000;
            stroke-miterlimit: 10;
            fill-opacity: 0.2;
            opacity: 0;
          }

          .st8:hover {
            opacity: 0.4;
          }

          .st9 {
            fill: #000;
            stroke-miterlimit: 10;
            fill-opacity: 0.2;
            opacity: 0;
          }

          .st9:hover {
            opacity: 0.4;
          }

          .st10 {
            fill: #000;
            stroke-miterlimit: 10;
            fill-opacity: 0.2;
            opacity: 0;
          }

          .st10:hover {
            opacity: 0.4;
          }

          .st11 {
            fill: #000;
            stroke-miterlimit: 10;
            fill-opacity: 0.2;
            opacity: 0;
          }

          .st11:hover {
            opacity: 0.4;
          }

          .st12 {
            fill: #000;
            stroke-miterlimit: 10;
            fill-opacity: 0.2;
            opacity: 0;
          }

          .st12:hover {
            opacity: 0.4;
          }

          .st13 {
            fill: #000;
            stroke-miterlimit: 10;
            fill-opacity: 0.2;
            opacity: 0;
          }

          .st13:hover {
            opacity: 0.4;
          }

          .st14 {
            fill: #000;
            stroke-miterlimit: 10;
            fill-opacity: 0.2;
            opacity: 0;
          }

          .st14:hover {
            opacity: 0.4;
          }

          .st15 {
            fill: #000;
            stroke-miterlimit: 10;
            fill-opacity: 0.2;
            opacity: 0;
          }

          .st15:hover {
            opacity: 0.4;
          }
        </style>

        <g id="Layer_1_1_">
          <g id="test">
            <g id="XMLID_1_">
              <g id="XMLID_221_">
                <g>
                  <path class="st0" d="M-120.6,424.9c-3.9,1.1-7.7,0.4-11.2,2.9c2.3-3.4,1.2-5.9-0.1-9.3c-0.1-0.4-0.3-0.8-0.4-1.2
                        C-129.7,421.5-125.6,424.7-120.6,424.9z" />
                  <path class="st0" d="M-41.9,417.1c-0.1,0.4-0.2,0.8-0.4,1.2c-1.3,3.4-2.4,5.9-0.1,9.3c-3.5-2.5-7.3-1.8-11.2-2.9
                        C-48.5,424.5-44.4,421.3-41.9,417.1z" />
                  <path class="st0" d="M-27.6,397.1c0.6-0.3,1.3-0.5,1.8-0.8c-1.5,1.5-3,3-4.7,4.3c-3.3,2.5-6.8,2.8-8.6,6.2
                        c-0.2-7.3-3.5-10.2-8.4-13.4l0.2-0.3C-41.4,397-34.7,399.9-27.6,397.1z" />
                  <path class="st0" d="M-127,393.4l0.2,0.3c-4.8,3.2-8,6.1-8.2,13.3c-1.8-3.4-5.3-3.8-8.6-6.2c-1.8-1.3-3.3-2.8-4.7-4.3
                        c0.6,0.3,1.2,0.6,1.8,0.8C-139.5,400-132.9,397.3-127,393.4z" />
                  <path class="st0" d="M99.5,301.3c7.7,0.9,3.1,29.7,2.8,35.9c-0.4-0.3-0.8-0.6-1.1-1c0.8,7.4,3.9,9.6,1,16.8
                        c-0.3,0-0.6,0-0.9-0.1c-1.7-3.8-4.3-5.2-7.1-7.4c-0.9-0.7-1.7-1.4-2.6-2.3c-2.7-2.8-5.5-12.8-10.1-10.4l0,0
                        c0.5-1.4,1.1-2.9,2-4.4c3.3-5.2,5.5-7.8,6.6-13.7c0.9-4.6,1.6-10.6,7.5-10.6l1.2-2.1c0.1-0.3,0.1-0.5,0.2-0.8L99.5,301.3z" />
                  <path class="st0" d="M76.2,412.3c0-5.9-4.6-10.9-9.7-12.7l0.2-0.5c10.5,0,17.7-13.3,17.7-23.9c0-8.6-2.4-27.6,9.9-29.7l0,0
                        c2.8,2.2,5.5,3.6,7.1,7.4c-0.2,0-0.4-0.1-0.6-0.3c-0.8,11.9,3.7,22-2,33.7c-4.7,9.6-13.7,23.1-21.9,27.3l-0.6-0.1
                        C76.2,413.1,76.2,412.7,76.2,412.3z" />
                  <path class="st0" d="M-45.6,470.6l-2.5-1c1.9-1,3.6-2.3,5.3-3.8l0.2,0.2c2.5,5.5,0.4,9.3,6.7,11.1c5.6,1.6,10.1-0.2,14.8-2.5
                        c3.5-1.8,6.7-3.8,9.6-5.9c-0.6,2.5,0,4.7,1.2,6.8c-7.7,7.6-18.7,12.8-30.2,12.2c-5.8-0.3-9.7-1.3-9.3-7
                        C-49.5,478.2-46.9,472.3-45.6,470.6z" />
                  <path class="st0" d="M9.7,467.1c0.9,6.2-3.5,11.4-8.1,14.6c-8.1,5.6-17.6,7.5-26.8,9.3c-9.1,1.8-18.2,5.5-27.9,3.1
                        c-7.9-1.9-19.6-7.2-23.6-14.4c-5.1-9.3-2.7-15-0.1-24l0.3-0.2l0,0c1.2,2.2,2.6,4.3,3.8,5.9c3.5,4.8,8.4,8.6,14.4,9.8
                        c3.9,0.8,7.2,0,10.2-1.6l2.5,1c-1.3,1.7-3.9,7.7-4.1,10c-0.4,5.7,3.5,6.7,9.3,7c11.4,0.6,22.5-4.5,30.2-12.2
                        c0.5,0.9,1.2,1.8,1.9,2.7c-0.4-1.7-0.8-1.5-1.8-2.8l-0.1,0.1c-1.2-2.1-1.8-4.3-1.2-6.8c4.7-3.4,9-7.3,13.6-11.3
                        C2.9,461,9,462.2,9.7,467.1z" />
                  <path class="st0" d="M54.1,403.9c-0.3,0.4-0.5,0.9-0.7,1.4C53.7,404.9,53.9,404.4,54.1,403.9z M-5.4,417.4
                        c-1.1-0.5-2.2-1.1-3.4-1.7c0,0.1,0,0.2,0,0.4C-7.9,416.5-6.7,417-5.4,417.4z M-55.9,448.2c0.2-0.7,0.3-1.4,0.5-2.1
                        c0.5-1.6,1.2-3.2,1.7-4.9c-2,2.1-2.4,4.4-2.2,6.7c-0.1,0.4-0.2,0.8-0.2,1.2C-55.9,448.9-55.9,448.6-55.9,448.2z M-58.9,398.5
                        c3.1-2.1,6.7-4.7,7-8.7c0,0,0,0,0-0.1l0,0v0.1C-53.2,393.1-55.7,396.2-58.9,398.5z M-75.4,428c-5.8-2.8-7-6.4-7.4-13.9
                        c-0.3-6.6-0.7-14.3,1.2-20.4s6.4-9,9.8-13.7c-1.5-1.6-2.3-3.6-2.7-5.8c-0.1-1.3-0.2-2.4-0.2-3.5c-0.1,1.2,0,2.4,0.2,3.5
                        c0.3,5.1,0.8,11-5.3,12c-3.5-5.3-5.9-10.4-5.9-15.3c0-4.8,2.3-9.3,8.1-13.7v-0.4c3.6,0.6,8.3-2,12.3-2.1
                        c6.7-0.1,12.3,7.1,18.5,3.5c6.9-4.1,8.1-11.3,18.1-10.4c5.3,0.5,9.8,5.8,15.9,4.1c7.7-2.2,7.1-11.5,11.1-17.7l0.9,0.2
                        c6.8-3.1,15-0.5,19.5,5.8c1.1,1.6,1.8,3.3,2.2,5.1c1.1,5.5-0.9,11.7-2.5,17c-2.3,7.7-6.2,8.5-11.7,9.5c-0.8-0.1-1.5,0-2.3,0
                        c-9,0.8-16.4,10.2-22.6,16.2c-2.7,2.6-5,5.5-7.6,8.3c-0.6,0.3-1.2,0.6-1.8,0.8c-7.1,2.8-13.8-0.1-19.7-4.1l-0.2,0.3
                        c4.9,3.3,8.2,6.1,8.4,13.4c0,0.1-0.1,0.1-0.1,0.2c-1.2,2.5-1.7,6.9-2.6,10.1c-2.5,4.1-6.7,7.3-11.7,7.6
                        c3.9,1.1,7.7,0.4,11.2,2.9c-2.3-3.4-1.2-5.9,0.1-9.3c0.1-0.4,0.3-0.8,0.4-1.2c1.7-2.7,2.6-5.8,2.7-8.7c0-0.5,0-1.1,0-1.6
                        c1.8-3.4,5.3-3.8,8.6-6.2c1.8-1.3,3.3-2.8,4.7-4.3c10.5-5.4,14.9-19.6,26.2-23c2.3-0.7,4.5-1.1,6.4-1.4
                        c6.2,0.4,11.1,4.4,11.3,10.4h1.6c11-6.2,19.9,0.8,22.4,10.8l2-0.3c1.5-0.3,3.1-0.6,4.8-1.3l0.5,1.3c3.9,1.1,6.1,7.2,4.7,11.2
                        c2.8-5,7.8-5.9,12.4-4.3c5.2,1.8,9.7,6.8,9.7,12.7c0,0.4,0,0.8,0,1.2c-0.4,5.8-3.7,9.5-7.6,13.5c-4,4.1-6,8-8.7,12.8
                        c-2.6,4.6-6.6,7.3-10.5,10.6c-4.4,3.6-5.4,6.4-8.2,10.7c-4.7,7.2-14.2,10.5-22.7,8.4c-4.7-1.1-17.3-10.7-11.1-16.3L7.2,453
                        c-0.7,0.7-1.3,1.3-2,1.9c-1,0.8-2,1.7-3,2.5c-4.7,3.9-8.9,7.8-13.6,11.3c-3,2.2-6.1,4.2-9.6,5.9c-4.7,2.3-9.2,4.1-14.8,2.5
                        c-6.3-1.8-4.2-5.6-6.7-11.1l-0.2-0.2c-1.7,1.5-3.4,2.8-5.3,3.8c-3,1.6-6.3,2.4-10.2,1.6c-6-1.2-10.9-5-14.4-9.8
                        c-1.2-1.6-2.5-3.7-3.8-5.9l0,0c-1.9-3.5-3.6-7.3-3.9-10.4c-0.9-7.2,4.4-10.3,4.9-16.9V428L-75.4,428z" />
                  <path class="st0" d="M43.6,316.6c0,2.6,1.5,3,0.7,6.4c-0.8,3.5-2.8,6.8-4.9,9.7c-4.3,5.8-9,13.1-16.7,12.3l-1.7,0.4
                        c-0.4-1.8-1-3.5-2.2-5.1c-4.5-6.3-12.7-8.9-19.5-5.8l-0.9-0.2c0.6-0.9,1.2-1.7,2-2.5c6.8-6.2,14.5-8,16.9-17.9
                        c2.5-10.1-8-14.9-8.1-24c6.6-0.5,12.1,2,18.7-0.8h2.2c1.7,1.3,1.7,4.3,3,6.3c1.4,2.2,3.3,3.1,5,5.4c2.4,3.1,2.8,14.1,4.7,15.5
                        C43,316.5,43.3,316.6,43.6,316.6z" />
                  <path class="st0" d="M68.3,373.9c0.2-0.1,0.4-0.3,0.6-0.4c-0.6,0.1-1.3,0-1.9,0C67.4,373.7,67.8,373.8,68.3,373.9z M39.4,332.7
                        c2.1-2.9,4.1-6.2,4.9-9.7c0.8-3.4-0.7-3.8-0.7-6.4c-0.3,0-0.6-0.1-0.8-0.3c-1.9-1.4-2.3-12.4-4.7-15.5c-1.7-2.3-3.6-3.2-5-5.4
                        c-1.3-2-1.3-5-3-6.3h-2.2c7.2-3,10-8,12.7-14.9c0.9-2.3,1.2-5.2,3.2-6.9c3.1-2.5,6.1,0.1,9.7-2c4.9-2.9,2.2-7.5,8.5-7.1
                        c0.7,0,5.6,2.2,6.7,2.5c2.4,0.7,6,1.5,8.5,1.7c4.9,0.3,11.5-1.2,13.6-6c0.3-0.7,0.5-1.5,0.7-2.4l0.7,0.1
                        c-0.9,4.1,7.9,17,8.9,21.3c2.4,9.4,0,17.5-2.1,25.8c-0.1,0.3-0.1,0.6-0.2,0.8l-1.2,2.1c-6,0-6.7,6.1-7.5,10.6
                        c-1.1,5.9-3.3,8.5-6.6,13.7c-0.9,1.5-1.5,3-2,4.4l0,0c4.6-2.4,7.4,7.6,10.1,10.4c0.9,0.9,1.8,1.6,2.6,2.3l0,0
                        c-12.3,2.1-9.9,21.1-9.9,29.7c0,10.6-7.1,23.9-17.7,23.9l-0.2,0.5c-4.5-1.6-9.6-0.6-12.4,4.3c1.4-4-0.8-10.1-4.7-11.2l-0.5-1.3
                        c-1.7,0.6-3.3,1-4.8,1.3l-2,0.3c-2.5-9.9-11.4-17-22.4-10.8H18c-0.2-6-5.1-10-11.3-10.4c5.5-1,9.4-1.7,11.7-9.5
                        c1.6-5.3,3.6-11.5,2.5-17l1.7-0.4C30.4,345.8,35.1,338.5,39.4,332.7z" />
                  <path class="st0" d="M-4.9,112c0.6-10.4-7-8.8-11.1-15.6c-3.7-6.3-4.3-17.1-14.4-10.4c0,0.5-0.1,1-0.1,1.5
                        c-0.2-4.8-2.9-10.6-7.6-12.1l-1.5-0.1c0-1.3-0.3-2.5-0.9-3.5l1.3-0.4c4.6,1,6.8,3.8,10.9,6c3.5,1.9,7.2,2.7,10.8,4.9
                        c6.2,3.7,12.9,5.4,16.7,11.5l1.2-0.3c9.6,1.4,12.4,10.4,19.2,15.7c3.1,2.4,6.8,3.8,9.9,6.5c4.2,3.7,4.4,7.4,6.7,12.1
                        c2.5,5.2,7.3,8.3,11.1,12.5c4,4.5,6,10.5,7.2,16.3c1.3,6.1,1.8,12.6,3.5,18.7c0.3,1.1,1.1,2.3,2,3.6l-0.3,0.2
                        c-2.5-1.2-8.9-10.2-12.4-7.4l-0.5-0.4c-0.2-6.2-4.3-11.7-7-17.1c-4.4-8.7-10.1-6.3-18.3-7.1c3.1-2.2,2.4-4.3,2.1-7.3
                        c-0.1-1.5-1.6-6.6-1.7-6.9c0,0,0,0.1,0,0.2h-0.2c1.3,4.2-4,7.6-8,8.6c2.5-11-1.9-22.8-12.7-27.5c-1.8-0.8-3.8-1.2-5.9-1.2
                        L-4.9,112L-4.9,112z" />
                  <path class="st0" d="M-30.4,87.5c0,0.4,0,0.7,0,1.1C-30.4,88.3-30.4,87.9-30.4,87.5z M-4.9,113c-13.3-0.3-30.1,12.9-14.8,22.7
                        c-5.7-2.2-5.5-8.3-9.3-12.1c-1.3,0.5-2.4,1-3.3,1.5c1.4-1.7,2.6-3.7,3.1-6.8c1.2-6.5-5.4-22.6-13.4-19.6
                        c6.1-10.4-1.9-24.5-14.4-17.3c3.9-5.6,10.2-1,16-1.1c1-1.9,1.4-3.5,1.4-5l1.5,0.1c4.7,1.5,7.4,7.3,7.6,12.1
                        c0-0.5,0.1-1,0.1-1.5c10.1-6.7,10.7,4.1,14.4,10.4c4.1,6.8,11.7,5.2,11.1,15.6L-4.9,113z" />
                  <path class="st0" d="M31.2,204.6c-8.8-0.2-11.6-9.8-18.9-13c-5.5-2.4-18.6-4.3-18.9-11.7c0-0.6,0.1-1.3,0.2-1.9
                        c1.5-7.1,5.3-12.4,1.1-18.9l1.1-0.4c3.2-4.2,13-1.9,15.6,2.3c2.1,3.4,1.8,8.2,0.6,12.2c-0.6,1.2-1.4,2.7-1.7,3.9
                        c0.6-1.1,1.2-2.5,1.7-3.9c0.1-0.2,0.2-0.3,0.2-0.5C27.8,175.1,28.3,192.9,31.2,204.6z" />
                  <path class="st0" d="M58.5,216.2c0,0.4,0,0.8,0.1,1.2C58.6,217,58.6,216.6,58.5,216.2z M14.3,270.8c-0.1,0.6-0.1,1.2-0.2,1.8
                        C14.3,272,14.3,271.4,14.3,270.8z M-8.4,296.9c1.1,2.1,3.2,3.5,6.8,3.8C-3.5,298.8-5.9,297.3-8.4,296.9z M-5.4,159.1
                        c4.3,6.5,0.5,11.8-1.1,18.9c-0.1,0.6-0.2,1.3-0.2,1.9c0.3,7.4,13.4,9.2,18.9,11.7c7.3,3.2,10.1,12.8,18.9,13
                        c-2.9-11.7-3.4-29.5-19-31.9c-0.1,0.2-0.2,0.3-0.2,0.5c1.2-4,1.5-8.8-0.6-12.2c-2.6-4.2-12.4-6.5-15.6-2.3L-5.4,159.1z
                         M2,256.2c-0.2-1.8-1.2-3.9-3.2-6.2C-0.4,252.4,0.6,254.5,2,256.2z M-15.9,230.7c0.8-5.1,0.5-10.3-1.1-13.7
                        C-16.4,220.3-16.4,225.9-15.9,230.7z M-7.5,196.9c-0.7,0.5-1.2,1.6-1.4,3.5C-8.5,199.2-8,198.1-7.5,196.9z M-37.6,328.7
                        c-0.7,1.4-1,2.7-1,3.7C-38,331.3-37.7,330.1-37.6,328.7z M-53.4,212c0.3-0.2,0.5-0.3,0.8-0.5C-52.9,211.7-53.1,211.9-53.4,212z
                         M-56.6,312.6c0.3-0.4,0.5-0.8,0.6-1.2C-56.4,311.8-56.5,312.2-56.6,312.6z M-52.5,231.7c-0.6-0.3-1.3-0.6-2.1-0.8
                        C-53.9,231.2-53.2,231.5-52.5,231.7z M-81.6,231.5c-3-4.6-2-13.8-1.7-18.8c0.2-4.3,2.2-7.9,1.6-12.3c-0.6-4.4-1.3-6.6-0.6-11.1
                        c0.4-2.5,2.5-6.8,1.9-9.2c-0.6-2.7-3.6-3.5-4.7-6.2c-0.4-1-0.6-2.3-0.7-3.6c0-5.1,2.5-11.9,4.7-15.2
                        c-5.1-4.1-3.4-14.5-3.4-20.3c0-2.6-0.1-9.3,3.5-9.2h0.1c2.3,3.5,5.1,6.6,7.4,8.9c-1.6-1.7-4.9-8.7-7.4-8.9
                        c-3.6-5.5-5.9-11.8-3-16.5c1.2-2,2.8-3,4.4-3.8v-0.4c-4.6-12.6-0.2-32.3,12.3-37.4c6-2.4,22.7-2.5,26.8,4.3
                        c0.6,1,0.9,2.2,0.9,3.5c0,1.5-0.4,3.1-1.4,5c-5.8,0.1-12.1-4.5-16,1.1c12.5-7.2,20.5,6.9,14.4,17.3c8-3,14.6,13.1,13.4,19.6
                        c-0.5,3.1-1.8,5.1-3.1,6.8c-5.7,2.9-6.3,5.5-6.3,11l0,0c0,0.9,0,1.9,0,3c0,0.3,0,0.6,0,0.9c0-0.3,0-0.6,0-0.9
                        c0.3,0.9,0.6,1.7,1,2.4c-0.4-1.5-0.7-3.1-0.9-4.6c0.5-6.6,3.7-8.8,6.2-11.9c1-0.5,2.1-1,3.3-1.5c3.8,3.8,3.6,9.9,9.3,12.1
                        c-15.3-9.8,1.5-22.9,14.8-22.7c2.1,0,4.1,0.4,5.9,1.2c10.8,4.7,15.2,16.5,12.7,27.5c4-1,9.3-4.4,8-8.6h0.1c0-0.1,0-0.2,0-0.2
                        c0.2,0.3,1.6,5.4,1.7,6.9c0.3,3,1,5.1-2.1,7.3c8.2,0.8,13.9-1.6,18.3,7.1c2.7,5.4,6.8,10.9,7,17.1l0.5,0.4
                        c3.4-2.8,9.9,6.3,12.4,7.4l0.3-0.2c2.5,3.4,6.3,7.1,6.3,10.1c0,0.6,0,1.1-0.1,1.5c-0.3-0.3-0.6-0.5-0.3,0.2
                        c0.1,0.1,0.2,0.2,0.2,0.2c3.2,3.4,3.7,5.1,2.7,7.1l0.9,0.3c2.6,1,6.4,11.3,8.4,14.6c3,4.7-0.5,12.2,3.8,15.1l-0.1,0.7
                        c6.8,2.5,11.1,17.3,9.6,25.3c-0.2,0.9-0.4,1.7-0.7,2.4c-2.1,4.8-8.7,6.3-13.6,6c-2.5-0.2-6.1-1-8.5-1.7c-1.1-0.3-6-2.5-6.7-2.5
                        c-6.3-0.4-3.6,4.2-8.5,7.1c-3.6,2.1-6.6-0.5-9.7,2c-2,1.7-2.3,4.6-3.2,6.9C37.8,281,35,286,27.8,289
                        c-6.6,2.8-12.1,0.3-18.7,0.8c0.1,9.1,10.6,13.9,8.1,24c-2.4,9.9-10.1,11.7-16.9,17.9c-0.8,0.7-1.5,1.6-2,2.5
                        c-4,6.2-3.4,15.5-11.1,17.7c-6.1,1.7-10.6-3.6-15.9-4.1c-10-0.9-11.2,6.3-18.1,10.4c-6.2,3.6-11.8-3.6-18.5-3.5
                        c-4,0.1-8.7,2.7-12.3,2.1c-1.7-0.3-3.2-1.4-4.2-3.9c-2.4-5.6,1.1-16.9,3.2-22c1.9-4.3,5.7-8.5,10.3-11c1.6-0.5,3.2-1.2,4.8-2
                        c3-0.8,6.2-0.8,9.1,0.5c1.1,0.8,2.4,1.6,3.6,2.4c-1.1-1-2.4-1.8-3.6-2.4c-2-1.5-3.4-3.3-2.3-5.9c-1.5,2.3-4,4-6.8,5.4
                        c-1.6,0.4-3.3,1.1-4.8,2c-1.5,0.5-2.9,0.9-4.3,1.2c-5.3,1.3-9.3-1.6-10.3-7.3c-1.2-6.5,2-12.4,1.8-18.9
                        c-0.2-5.3-2.2-11.7,2.2-15.9C-89.9,267.2-81.6,245.6-81.6,231.5z" />
                  <path class="st0" d="M-124.5,480.8c0.4,5.7-3.5,6.7-9.3,7c-11.4,0.6-22.5-4.5-30.2-12.2c1.3-2.1,1.9-4.4,1.2-6.9
                        c3,2.2,6.2,4.3,9.8,6c4.7,2.3,9.2,4.1,14.8,2.5c6.3-1.8,4.2-5.6,6.7-11.1l0.2-0.2c1.1,1,2.3,1.9,3.5,2.8l-1.3,1.5
                        C-128.1,470.7-124.7,478.1-124.5,480.8z" />
                  <path class="st0" d="M-97.4,455.9c2.6,9,5,14.7-0.1,24c-4,7.2-15.7,12.5-23.6,14.4c-9.7,2.4-18.8-1.3-27.9-3.1
                        c-9.2-1.8-18.7-3.7-26.8-9.3c-4.6-3.2-9-8.4-8.1-14.6c0.8-4.9,6.8-6,7.5-9.7c4.6,3.9,8.9,7.8,13.5,11.2c0.7,2.5,0,4.7-1.2,6.9
                        l-0.1-0.1c-1,1.3-1.4,1.1-1.8,2.8c0.7-0.9,1.4-1.8,1.9-2.7c7.7,7.6,18.7,12.8,30.2,12.2c5.8-0.3,9.7-1.3,9.3-7
                        c-0.2-2.7-3.6-10.1-4.6-10.5l1.3-1.5c3.4,2.3,7.3,3.5,12,2.6c6-1.2,10.9-5,14.4-9.8c1.2-1.6,2.5-3.7,3.8-5.9l0,0L-97.4,455.9z" />
                  <path class="st0" d="M-228.4,404.1c0.2,0.5,0.4,1,0.7,1.4C-227.9,405-228.1,404.5-228.4,404.1z M-122.2,390
                        c0.3,4,3.9,6.6,7,8.7C-118.4,396.4-120.9,393.3-122.2,390v-0.1C-122.2,389.9-122.2,389.9-122.2,390L-122.2,390z M-118.4,448.4
                        c0.1,0.3,0.2,0.6,0.2,1c-0.1-0.4-0.1-0.8-0.2-1.2c0.2-2.3-0.2-4.5-2.2-6.7c0.5,1.6,1.2,3.3,1.7,4.9
                        C-118.9,447.1-118.6,447.8-118.4,448.4z M-165.4,415.9c-1,0.5-1.9,1-2.8,1.4c1-0.4,1.9-0.7,2.7-1.1
                        C-165.4,416-165.4,415.9-165.4,415.9z M-176.4,457.6c-1-0.8-2-1.7-3-2.5c-0.7-0.6-1.4-1.2-2.1-1.9l-0.2,0.2
                        c6.2,5.6-6.4,15.2-11.1,16.3c-8.5,2.1-18-1.2-22.7-8.4c-2.8-4.3-3.8-7.1-8.2-10.7c-3.9-3.3-7.9-6-10.5-10.6
                        c-2.7-4.8-4.7-8.7-8.7-12.8c-3.8-3.9-7.1-7.7-7.6-13.5c0-0.4,0-0.8,0-1.2c0-6,4.7-11.1,10-12.8c4.5-1.4,9.3-0.4,12.1,4.4
                        c-1.4-4,0.8-10.1,4.7-11.2l0.5-1.3c1.7,0.6,3.3,1,4.8,1.3l2.1,0.3c2.6-9.9,11.4-17,22.4-10.8l1.6,0.1c0.2-6,5.1-10,11.3-10.4
                        c1.9,0.4,4.1,0.7,6.4,1.4c11.3,3.4,15.7,17.5,26.2,23c1.5,1.6,3,3,4.7,4.3c3.3,2.5,6.8,2.8,8.6,6.2c0,0.5,0,1,0,1.6
                        c0.1,3,1.1,6,2.7,8.7c0.1,0.4,0.2,0.8,0.4,1.2c1.3,3.4,2.4,5.9,0.1,9.3c3.5-2.5,7.3-1.8,11.2-2.9c-5-0.2-9.1-3.4-11.7-7.6
                        c-0.9-3.2-1.5-7.7-2.6-10.1c0-0.1-0.1-0.1-0.1-0.2c0.2-7.2,3.4-10.1,8.2-13.3l-0.2-0.3c-5.9,3.9-12.5,6.6-19.5,3.9
                        c-0.6-0.3-1.3-0.5-1.8-0.8c-2.5-2.7-4.8-5.6-7.6-8.3c-6.2-6-13.6-15.4-22.7-16.1c-0.8-0.1-1.6-0.1-2.3,0
                        c-5.5-1-9.4-1.7-11.7-9.5c-1.6-5.4-3.7-11.8-2.4-17.5c0.4-1.6,1-3.2,2.1-4.6c4.5-6.3,12.7-8.9,19.5-5.8l1.4,0.3
                        c3.6,6.2,3.2,14.9,10.6,17.1c6.1,1.7,10.6-3.6,15.9-4.1c10-0.9,11.2,6.3,18.1,10.4c6.2,3.6,11.8-3.6,18.5-3.5
                        c3.6,0.1,7.6,2.1,11,2.1l1.3,0.4c5.8,4.3,8,8.8,8.1,13.5c0,5-2.4,10.1-5.9,15.5c-6-1-5.6-6.9-5.3-12c0.2-1.1,0.2-2.3,0.2-3.5
                        c0,1.1-0.1,2.3-0.2,3.5c-0.3,2.1-1.1,4.2-2.6,5.8c3.4,4.7,7.9,7.6,9.8,13.7c1.9,6.1,1.5,13.8,1.2,20.4
                        c-0.4,7.6-1.6,11.2-7.4,13.9l0.1,0.2c0.5,6.6,5.8,9.7,4.9,16.9c-0.4,3.1-2,7-3.9,10.4l0,0c-1.2,2.2-2.6,4.3-3.8,5.9
                        c-3.5,4.8-8.4,8.6-14.4,9.8c-4.7,0.9-8.6-0.4-12-2.6c-1.2-0.8-2.4-1.8-3.5-2.8l-0.2,0.2c-2.5,5.5-0.4,9.3-6.7,11.1
                        c-5.6,1.6-10.1-0.2-14.8-2.5c-3.6-1.8-6.8-3.8-9.8-6C-167.4,465.4-171.6,461.5-176.4,457.6z" />
                  <path class="st0" d="M-276.4,337.4c-0.3-6.2-4.9-35,2.8-35.9l0.4-0.1c0.1,0.2,0.1,0.5,0.2,0.7l1.3,2.2c6,0,6.6,6.1,7.5,10.6
                        c1.1,5.9,3.3,8.5,6.6,13.7c1,1.5,1.5,3,2,4.4l0,0c-4.6-2.4-7.4,7.6-10.1,10.4c-0.9,0.9-1.8,1.6-2.6,2.3
                        c-2.8,2.2-5.4,3.6-7.1,7.4c-0.3,0.1-0.6,0.1-0.9,0.1c-2.9-7.1,0.3-9.3,1-16.8C-275.6,336.8-276.1,337.1-276.4,337.4z" />
                  <path class="st0" d="M-250.4,412.5c0,0.4,0,0.8,0,1.2l-0.6,0.1c-8.2-4.2-17.2-17.7-21.9-27.3c-5.7-11.7-1.2-21.8-2-33.7
                        c-0.2,0.1-0.4,0.2-0.5,0.3c1.7-3.7,4.3-5.2,7.1-7.4l0,0c12.3,2.1,9.9,21.1,9.9,29.7c0,10.7,7.3,24.2,18,23.9v0.4
                        C-245.7,401.4-250.4,406.5-250.4,412.5z" />
                  <path class="st0" d="M-202,289.2c6.6,2.8,12.1,0.3,18.7,0.8c-0.1,9.1-10.6,13.9-8.1,24c2.4,9.9,10.1,11.7,16.9,17.9
                        c1,0.9,1.8,2,2.4,3.1l-1.4-0.3c-6.8-3.1-15-0.5-19.5,5.8c-1,1.5-1.7,3-2.1,4.6h-1.8c-7.7,0.8-12.4-6.5-16.7-12.3
                        c-2.1-2.9-4.1-6.2-4.9-9.7c-0.8-3.4,0.7-3.8,0.7-6.4c0.3,0,0.5-0.1,0.7-0.3c1.9-1.4,2.3-12.4,4.7-15.5c1.7-2.3,3.6-3.2,5-5.4
                        c1.3-2,1.3-5,3-6.3l0.4-0.9C-203.4,288.6-202.7,288.9-202,289.2z" />
                  <path class="st0" d="M-242.6,374.1c0.4-0.1,0.8-0.2,1.3-0.4c-0.6,0-1.3,0.1-1.9,0C-242.9,373.8-242.7,374-242.6,374.1z
                         M-255.6,333L-255.6,333c-0.5-1.4-1-2.9-2-4.4c-3.3-5.2-5.5-7.8-6.6-13.7c-0.9-4.6-1.6-10.6-7.5-10.6l-1.3-2.2
                        c-0.1-0.2-0.1-0.5-0.2-0.7c-2.1-8.4-4.6-16.5-2.1-25.9c1.1-4.3,9.8-17.2,8.9-21.3l0.8-0.1c0.2,0.9,0.4,1.7,0.7,2.4
                        c2.1,4.8,8.7,6.3,13.6,6c2.5-0.2,6.1-1,8.5-1.7c1.1-0.3,6-2.5,6.7-2.5c6.3-0.4,3.6,4.2,8.5,7.1c3.6,2.1,6.6-0.5,9.7,2
                        c2,1.7,2.3,4.6,3.2,6.9c2.5,6.3,5,11,10.8,14l-0.4,0.9c-1.7,1.3-1.7,4.3-3,6.3c-1.4,2.2-3.3,3.1-5,5.4
                        c-2.4,3.1-2.8,14.1-4.7,15.5c-0.2,0.1-0.4,0.3-0.7,0.3c0,2.6-1.5,3-0.7,6.4c0.8,3.5,2.8,6.8,4.9,9.7c4.3,5.8,9,13.1,16.7,12.3
                        h1.8c-1.3,5.6,0.7,12,2.4,17.5c2.3,7.7,6.2,8.5,11.7,9.5c-6.2,0.4-11.1,4.4-11.3,10.4l-1.6-0.1c-11-6.2-19.9,0.9-22.4,10.8
                        l-2.1-0.3c-1.5-0.3-3.2-0.6-4.8-1.3l-0.5,1.3c-3.9,1.1-6.1,7.2-4.7,11.2c-2.8-4.9-7.6-5.9-12.1-4.4v-0.4
                        c-10.7,0.3-18-13.2-18-23.9c0-8.6,2.4-27.6-9.9-29.7l0,0c0.9-0.7,1.7-1.4,2.6-2.3C-263.1,340.6-260.2,330.6-255.6,333z" />
                  <path class="st0" d="M-143.9,87.7c0,0.4,0,0.7,0,1.1C-143.9,88.4-143.9,88.1-143.9,87.7z M-169.4,112.2
                        c-0.6-10.4,7-8.8,11.1-15.6c3.7-6.3,4.3-17.1,14.4-10.4c0,0.5,0.1,1,0.1,1.5c0.2-4.8,2.9-10.6,7.6-12.1h1.5
                        c0,1.4,0.5,3,1.4,4.8c5.8,0.1,12.1-4.5,16,1.1c-12.5-7.2-20.5,6.9-14.4,17.3c-8-3-14.6,13.1-13.4,19.6c0.6,3.1,1.8,5.1,3.1,6.8
                        c-1-0.5-2.1-1-3.3-1.5c-3.8,3.8-3.6,9.9-9.3,12.1c15.3-9.8-1.5-22.9-14.8-22.7L-169.4,112.2L-169.4,112.2z" />
                  <path class="st0" d="M-175.4,114.3c-10.8,4.7-15.2,16.5-12.7,27.5c-4.1-1-9.3-4.4-8-8.6h-0.1c0-0.1,0-0.2,0-0.2
                        c-0.2,0.3-1.6,5.4-1.7,6.9c-0.3,3-1,5.1,2.1,7.3c-8.2,0.8-13.9-1.6-18.3,7.1c-2.7,5.4-6.8,10.9-7,17.1l-1.1,0.1
                        c-3.5-1.7-9.5,6.6-11.9,7.7l-0.2-0.1c0.9-1.2,1.6-2.4,1.9-3.6c1.7-6.1,2.2-12.6,3.5-18.7c1.2-5.8,3.2-11.8,7.2-16.3
                        c3.8-4.2,8.6-7.3,11.1-12.5c2.3-4.7,2.5-8.4,6.7-12.1c3.1-2.7,6.8-4.1,9.9-6.5c6.8-5.3,9.6-14.3,19.2-15.7l1.6-0.5
                        c3.9-5.5,10.3-7.2,16.3-10.8c3.6-2.2,7.3-3,10.8-4.9c4.1-2.2,6.3-5,10.9-6h1.5c-0.8,1.1-1.3,2.5-1.2,4.1h-1.5
                        c-4.7,1.5-7.4,7.3-7.6,12.1c0-0.5-0.1-1-0.1-1.5c-10.1-6.7-10.7,4.1-14.4,10.4c-4.1,6.8-11.7,5.2-11.1,15.6v0.9
                        C-171.5,113.1-173.5,113.5-175.4,114.3z" />
                  <path class="st0" d="M-167.7,178.2c0.1,0.7,0.2,1.3,0.2,1.9c-0.3,7.4-13.4,9.2-18.9,11.7c-7.3,3.2-10.1,12.8-18.9,13
                        c2.9-11.7,3.4-29.5,19-31.9c0.1,0.2,0.2,0.3,0.2,0.5c0.5,1.5,1,2.8,1.7,3.9c-0.3-1.2-1.1-2.7-1.7-3.9c-1.2-4-1.5-8.8,0.6-12.2
                        c2.6-4.2,12.4-6.5,15.6-2.3l1.1,0.4C-173,165.8-169.2,171.1-167.7,178.2z" />
                  <path class="st0" d="M-232.7,216.4c0,0.4-0.1,0.8-0.1,1.2C-232.9,217.2-232.7,216.8-232.7,216.4z M-120.7,212.2
                        c-0.3-0.2-0.5-0.3-0.8-0.5C-121.4,211.9-121,212.1-120.7,212.2z M-117.4,312.7c-0.2-0.4-0.4-0.8-0.7-1.2
                        C-117.9,311.9-117.7,312.3-117.4,312.7z M-135.6,332.4c0-0.9-0.3-2-0.8-3.2C-136.4,330.4-136.1,331.5-135.6,332.4z
                         M-135.7,136.9c0.1-6-0.4-8.8-6.3-11.8c-1.4-1.7-2.6-3.7-3.1-6.8c-1.2-6.5,5.4-22.6,13.4-19.6c-6.1-10.4,1.9-24.5,14.4-17.3
                        c-3.9-5.6-10.2-1-16-1.1c-0.9-1.8-1.4-3.4-1.4-4.8c-0.1-1.6,0.4-2.9,1.2-4.1c4.6-6.4,20.6-6.3,26.5-3.9
                        c12.5,5.1,16.9,24.8,12.3,37.4l-0.2,0.3c1.7,0.8,3.4,1.9,4.7,4c2.9,4.7,0.7,11-3,16.5c-2.5,0.2-5.8,7.2-7.4,8.9
                        c2.3-2.3,5.2-5.4,7.4-8.9h0.1c3.6-0.1,3.5,6.6,3.5,9.2c0,5.8,1.7,16.2-3.4,20.3c2.1,3.2,4.7,9.9,4.7,15c0,1.4-0.2,2.7-0.7,3.8
                        c-1.1,2.7-4.1,3.5-4.7,6.2c-0.6,2.4,1.5,6.7,1.9,9.2c0.7,4.5,0,6.7-0.6,11.1c-0.6,4.4,1.4,8,1.6,12.3c0.3,5,1.3,14.2-1.7,18.8
                        c0,14.1,8.2,35.6-2.8,47.5c4.4,4.2,2.4,10.6,2.2,15.9c-0.2,6.5,3,12.4,1.8,18.9c-1,5.7-5,8.6-10.3,7.3
                        c-1.3-0.3-2.8-0.7-4.3-1.2c-1.5-0.9-3.2-1.5-4.8-2c-2.8-1.4-5.3-3.2-6.8-5.4c1.1,2.6-0.3,4.4-2.3,5.9c-1.3,0.5-2.5,1.3-3.6,2.4
                        c1.2-0.8,2.5-1.5,3.6-2.4c2.9-1.3,6.1-1.3,9.1-0.5c1.5,0.8,3.2,1.4,4.8,2c4.5,2.5,8.4,6.7,10.3,11c2.1,5.1,5.6,16.4,3.2,22
                        c-1.3,3-3.2,3.9-5.5,3.9c-3.4,0-7.5-2.1-11-2.1c-6.7-0.1-12.3,7.1-18.5,3.5c-6.9-4.1-8.1-11.3-18.1-10.4
                        c-5.3,0.5-9.8,5.8-15.9,4.1c-7.4-2.1-7.1-10.8-10.6-17.1c-0.7-1.1-1.4-2.2-2.4-3.1c-6.8-6.2-14.5-8-16.9-17.9
                        c-2.5-10.1,8-14.9,8.1-24c-6.6-0.5-12.1,2-18.7-0.8c-0.7-0.3-1.3-0.6-1.9-0.9c-5.8-3-8.3-7.8-10.8-14c-0.9-2.3-1.2-5.2-3.2-6.9
                        c-3.1-2.5-6.1,0.1-9.7-2c-4.9-2.9-2.2-7.5-8.5-7.1c-0.7,0-5.6,2.2-6.7,2.5c-2.4,0.7-6,1.5-8.5,1.7c-4.9,0.3-11.5-1.2-13.6-6
                        c-0.3-0.7-0.6-1.5-0.7-2.4c-1.5-8,2.8-22.8,9.6-25.3l-0.1-0.7c4.3-2.9,0.8-10.4,3.8-15.1c2-3.3,5.8-13.6,8.4-14.6l0.8-0.2
                        c-1.1-2-0.5-3.7,2.8-7.1c0.1-0.1,0.1-0.1,0.1-0.2c0.3-0.7,0.1-0.5-0.2-0.3c0-0.4-0.1-0.9-0.1-1.4c0-3,3.8-6.7,6.3-10.1l0.2,0.1
                        c2.4-1.1,8.4-9.4,11.9-7.7l1.1-0.1c0.2-6.2,4.3-11.7,7-17.1c4.4-8.7,10.1-6.3,18.3-7.1c-3.1-2.2-2.4-4.3-2.1-7.3
                        c0.1-1.5,1.6-6.6,1.7-6.9c0,0,0,0.1,0,0.2h0.1c-1.3,4.2,4,7.6,8,8.6c-2.5-11,1.9-22.8,12.7-27.5c1.8-0.8,3.8-1.2,5.9-1.2
                        c13.3-0.3,30.1,12.9,14.8,22.7c5.7-2.2,5.5-8.3,9.3-12.1c1.3,0.5,2.4,1,3.3,1.5c2.6,3.2,5.8,5.4,6.2,12.3
                        c-0.2,1.4-0.5,2.8-0.9,4.2c0.4-0.6,0.7-1.3,0.9-2.1l0,0C-135.7,138.6-135.7,137.8-135.7,136.9z M-121.6,231.8
                        c0.7-0.2,1.4-0.4,2.1-0.8C-120.4,231.2-121,231.5-121.6,231.8z M-158.4,230.8c0.6-4.9,0.4-10.4,1.1-13.7
                        C-158.7,220.5-159.1,225.8-158.4,230.8z M-165.9,297c-2.5,0.4-4.9,1.9-6.8,3.8C-168.9,300.5-166.9,299.1-165.9,297z
                         M-167.5,180.1c0-0.6-0.1-1.3-0.2-1.9c-1.5-7.1-5.3-12.4-1.1-18.9l-1.1-0.4c-3.2-4.2-13-1.9-15.6,2.3
                        c-2.1,3.4-1.8,8.2-0.6,12.2c-0.1-0.2-0.2-0.3-0.2-0.5c-15.6,2.4-16.1,20.2-19,31.9c8.8-0.2,11.6-9.8,18.9-13
                        C-180.9,189.4-167.7,187.5-167.5,180.1z M-166.6,197.1c0.5,1.2,1,2.3,1.4,3.5C-165.4,198.7-165.9,197.6-166.6,197.1z
                         M-188.4,270.9c0,0.6,0.1,1.2,0.2,1.8C-188.4,272.1-188.4,271.5-188.4,270.9z M-176.1,256.3c1.3-1.7,2.4-3.8,3.2-6.2
                        C-174.9,252.5-175.9,254.5-176.1,256.3z" />
                </g>
                <g>
                  <path class="st1" d="M-38.6,136.1c0-5.5,0.6-8.1,6.3-11c1-0.5,2.1-1,3.3-1.5c3.8,3.8,3.6,9.9,9.3,12.1
                        c-15.3-9.8,1.5-22.9,14.8-22.7c2.1,0,4.1,0.4,5.9,1.2c10.8,4.7,15.2,16.5,12.7,27.5c4-1,9.3-4.4,8-8.6
                        c-0.2-0.6-0.5-1.2-0.9-1.8" />
                  <path class="st1" d="M-79.5,104.9c-4.6-12.6-0.2-32.3,12.3-37.4c6-2.4,22.7-2.5,26.8,4.3c0.6,1,0.9,2.2,0.9,3.5
                        c0,1.5-0.4,3.1-1.4,5c-5.8,0.1-12.1-4.5-16,1.1c12.5-7.2,20.5,6.9,14.4,17.3c8-3,14.6,13.1,13.4,19.6c-0.5,3.1-1.8,5.1-3.1,6.8
                        c-2.5,3.1-5.7,5.3-6.2,11.9c-0.1,0.7-0.1,1.4-0.1,2.2c0,0.3,0,0.6,0,0.9c0-0.3,0-0.6,0-0.9c0-1.1,0-2.1,0-3" />
                  <path class="st1" d="M-30.4,87.5c0-0.5,0.1-1,0.1-1.5c10.1-6.7,10.7,4.1,14.4,10.4c4.1,6.8,11.7,5.2,11.1,15.6
                        c0-0.5,0-1.1,0-1.6" />
                  <path class="st1" d="M-30.4,87.5c0,0.4,0,0.7,0,1.1C-30.4,88.2-30.4,87.9-30.4,87.5z" />
                  <path class="st1" d="M-30.4,87.5L-30.4,87.5" />
                  <path class="st1" d="M-38,75.4c4.7,1.5,7.4,7.3,7.6,12.1" />
                  <path class="st1" d="M-53.4,212c-1.8,1.1-3.8,1.8-5.9,2.3c-1.3-4-2-9.2-0.7-13.2" />
                  <path class="st1" d="M-53.4,212c0.3-0.2,0.5-0.3,0.8-0.5C-52.9,211.7-53.1,211.9-53.4,212z" />
                  <path class="st1" d="M-80.9,125.6C-80.9,125.6-81,125.6-80.9,125.6c-3.7-0.1-3.6,6.6-3.6,9.2c0,5.8-1.7,16.2,3.4,20.3
                        c-2.1,3.2-4.7,10-4.7,15.2c0,1.4,0.2,2.6,0.7,3.6c1.1,2.7,4.1,3.5,4.7,6.2c0.6,2.4-1.5,6.7-1.9,9.2c-0.7,4.5,0,6.7,0.6,11.1
                        c0.6,4.4-1.4,8-1.6,12.3c-0.3,5-1.3,14.2,1.7,18.8c0.2,0.4,0.5,0.7,0.8,1c2.3-5.8,10.6-14.8,17.2-9.4
                        c-0.7-6.8,5.7-8.1,10.2-11.1" />
                  <path class="st1" d="M-80.9,125.6c2.3,3.5,5.1,6.6,7.4,8.9C-75.1,132.8-78.4,125.8-80.9,125.6z" />
                  <path class="st1" d="M-72.4,85.3c-2.9,5.2,3.9,10.1,0.5,15.1c-2,2.9-4.9,3.5-7.7,4.9c-1.6,0.8-3.2,1.8-4.4,3.8
                        c-2.9,4.7-0.6,11,3,16.5" />
                  <path class="st1" d="M-58.4,101.1c3.6-5.9,15.2,9.1,16.4,12.8c2.4,6.9,2.3,14.8,3.3,22.2l0,0c0,0.3,0.1,0.6,0.1,0.9
                        c0.2,1.6,0.5,3.1,0.9,4.6c-0.4-0.7-0.7-1.5-1-2.4l0,0c0-0.1-0.1-0.2-0.1-0.3" />
                  <path class="st1" d="M-58.4,136c0,7-1.3,16.3-10.9,18c3.3,0.5,5.6-1.7,8.8-1.7c3.5-0.1,4.9,1.3,7.7,3.1
                        c6.3,3.9,8.2,3.9,15.3,2.8c7.3-1.2,13.3-0.6,20.4,0.5c3.6,0.5,7.4,0.2,10.3-1.3s5.1-4.2,5.4-8.5c0.6-8.4-5.7-18.4,5.2-22.7" />
                  <path class="st1" d="M-79.4,179.6c6-3.4,14.2,4.6,19.7,8.3c7.2,4.9,12.7,3.6,20.5,6c0-0.4,0.1-0.8,0.1-1.2
                        c1.6-12.9,12.8-18.9,24.9-21.3" />
                  <path class="st1" d="M-74.6,159.3c-0.8,13.7,21,7.5,26.8,14" />
                  <path class="st1" d="M-69.4,110.4c-2.9,4.9,2.8,8.3,6,11.1c3.9,3.5,4.5,6,5.6,11" />
                  <path class="st1" d="M-7.5,196.9c3-2.2,9.4,7.1,10.6,9.2c1.5,2.7,3.9,5.9,4.5,9c0.7,3.1-0.8,7,0.4,9.3" />
                  <path class="st1" d="M-7.5,196.9c-0.5,1.2-1,2.3-1.4,3.5C-8.7,198.5-8.2,197.4-7.5,196.9z" />
                  <line class="st1" x1="-7.5" y1="196.9" x2="-7.5" y2="196.9" />
                  <path class="st1" d="M-7.1,156.9c0.2,0.2,0.3,0.3,0.4,0.5c0.5,0.6,0.9,1.2,1.3,1.7c4.3,6.5,0.5,11.8-1.1,18.9
                        c-0.1,0.6-0.2,1.3-0.2,1.9c-0.1,3.5,1.6,6.9,1.2,10.2c-0.2,2.4-1.2,4.6-2.1,6.8" />
                  <path class="st1" d="M-39.1,71.4c4.6,1,6.8,3.8,10.9,6c3.5,1.9,7.2,2.7,10.8,4.9c6.2,3.7,12.9,5.4,16.7,11.5
                        c0.7,1.1,1.3,2.4,1.8,3.8c0,0.7-0.3-0.4-0.6-0.6" />
                  <path class="st1" d="M-15.9,230.7c0.4,3.5,1.3,6.7,3.1,8.4c3.2,2.9,11.6,3.3,15.7,3.5c9.5,0.5,31.6-13.6,29.1-25.7" />
                  <path class="st1" d="M-15.9,230.7c0.8-5.1,0.5-10.3-1.1-13.7C-16.4,220.3-16.4,225.9-15.9,230.7z" />
                  <path class="st1" d="M-52.5,231.7c8.4,3.9,4.6,14.7,9.9,21.8c2.9,3.9,8.1,5.9,11.7,9.4c3.3,3.3,3.9,6.9,6.2,10.5
                        c-2.5-7.5,3.1-9.4,5.2-16c1.5-4.6,1.2-11.8-4.8-12.6c4.7-2.1,7.5-8,8.5-14.1" />
                  <path class="st1" d="M-52.5,231.7c-0.7-0.2-1.4-0.4-2.1-0.8C-53.9,231.1-53.1,231.4-52.5,231.7z" />
                  <path class="st1" d="M-39.1,192.5c0,0.1,0.1,0.2,0.1,0.2c3.6,7.3,9.6,15.8,6.9,25.7c-2.4,8.8-11.6,15.6-20.4,13.3" />
                  <path class="st1" d="M12,173.2c0.1-0.2,0.2-0.3,0.2-0.5c15.6,2.4,16.1,20.2,19,31.9c-8.8-0.2-11.6-9.8-18.9-13
                        c-5.5-2.4-18.6-4.3-18.9-11.7c0-0.5,0-1,0.1-1.5" />
                  <path class="st1" d="M12,173.2c-0.5,1.4-1,2.8-1.7,3.9C10.6,175.9,11.4,174.4,12,173.2z" />
                  <path class="st1" d="M-4.2,158.7c3.2-4.2,13-1.9,15.6,2.3c2.1,3.4,1.8,8.2,0.6,12.2" />
                  <path class="st1" d="M22,132.9L22,132.9c0.2,0.3,1.6,5.4,1.7,6.9c0.3,3,1,5.1-2.1,7.3c8.2,0.8,13.9-1.6,18.3,7.1
                        c2.7,5.4,6.8,10.9,7,17.1c-3.4-3.2-6.8-2.2-9.8,0.8c-3.9-4-6.3-10-11.8-12.7c-2.4-1.2-3.7-1-6.3-1.3c-1.3-0.1-6.4,0.7-4.1,0" />
                  <path class="st1" d="M22,133.1c0-0.1,0-0.2,0-0.2" />
                  <path class="st1" d="M0.5,93.5c9.6,1.4,12.4,10.4,19.2,15.7c3.1,2.4,6.8,3.8,9.9,6.5c4.2,3.7,4.4,7.4,6.7,12.1
                        c2.5,5.2,7.3,8.3,11.1,12.5c4,4.5,6,10.5,7.2,16.3c1.3,6.1,1.8,12.6,3.5,18.7c0.3,1.1,1.1,2.3,2,3.6c2.5,3.4,6.3,7.1,6.3,10.1
                        c0,0.6,0,1.1-0.1,1.5c0,0.2-0.1,0.3-0.1,0.5c-0.6,2.6-2.9,0.1-6.1,0.4c-5.3,0.5-5.3,3.2-8.7,7c-3.2,3.5-16.8,12.5-20,6.1" />
                  <path class="st1" d="M14.3,270.8c0.1-1,0.3-2,0.4-3" />
                  <path class="st1" d="M14.3,270.8c0,0.6-0.1,1.2-0.2,1.8C14.2,272,14.3,271.4,14.3,270.8z" />
                  <path class="st1" d="M2,256.2c0.5,4.2-3.2,7.2-7.6,10.4c6.2-2,7.7-6.7,14.3-3.2c2.9,1.5,5.6,4.2,5.6,7.4" />
                  <path class="st1" d="M2,256.2c-1.3-1.7-2.4-3.8-3.2-6.2C0.8,252.4,1.8,254.4,2,256.2z" />
                  <path class="st1" d="M-54.4,318.5c-2.9-1.3-6.1-1.3-9.1-0.5c-1.6,0.4-3.3,1.1-4.8,2c-4.5,2.5-8.4,6.7-10.3,11
                        c-2.1,5.1-5.6,16.4-3.2,22c1,2.5,2.5,3.5,4.2,3.9c3.6,0.6,8.3-2,12.3-2.1c6.7-0.1,12.3,7.1,18.5,3.5
                        c6.9-4.1,8.1-11.3,18.1-10.4c5.3,0.5,9.8,5.8,15.9,4.1c7.7-2.2,7.1-11.5,11.1-17.7c0.6-0.9,1.2-1.7,2-2.5
                        c6.8-6.2,14.5-8,16.9-17.9c2.5-10.1-8-14.9-8.1-24c6.6-0.5,12.1,2,18.7-0.8c7.2-3,10-8,12.7-14.9c0.9-2.3,1.2-5.2,3.2-6.9
                        c3.1-2.5,6.1,0.1,9.7-2c4.9-2.9,2.2-7.5,8.5-7.1c0.7,0,5.6,2.2,6.7,2.5c2.4,0.7,6,1.5,8.5,1.7c4.9,0.3,11.5-1.2,13.6-6
                        c0.3-0.7,0.5-1.5,0.7-2.4c1.5-8-2.8-22.8-9.6-25.3c1.9,5.1-0.7,7.4-5.4,8.2c-5.5,0.8-7-1.9-10.7-5.3c-3.3-3.1-19.1-14.4-22-9.7
                        c-1.5,2.3,0.7,4.8,0.7,7.5c0,3.1-1.8,10.2-3.5,12.8c-3.8,5.6-12.8,9.7-17.5,14.6c-7.3,7.6-16.2,6.5-21.5-0.6" />
                  <path class="st1" d="M-54.4,318.5c1.1,0.8,2.4,1.6,3.6,2.4C-51.9,319.9-53.1,319.1-54.4,318.5z" />
                  <path class="st1" d="M-56.7,312.6c-1.1,2.6,0.3,4.4,2.3,5.9" />
                  <path class="st1" d="M-56.6,312.6c0.3-0.4,0.5-0.8,0.6-1.2C-56.4,311.8-56.5,312.2-56.6,312.6z" />
                  <path class="st1" d="M-56.6,312.6L-56.6,312.6" />
                  <path class="st1" d="M-81.6,231.5c0,14.1-8.2,35.7,2.8,47.6c-4.4,4.2-2.4,10.6-2.2,15.9c0.2,6.5-3,12.4-1.8,18.9
                        c1,5.7,5,8.6,10.3,7.3c1.3-0.3,2.8-0.7,4.3-1.2c1.6-0.5,3.2-1.2,4.8-2c2.8-1.4,5.3-3.2,6.8-5.4" />
                  <path class="st1" d="M-67.6,244.8c10.6,6.8,12.8,13.8,8.7,24.8c6.1-4.1,15.7,1.9,18.8,7.6c-0.4-0.9-0.4-1.8-0.6-2.7" />
                  <path class="st1" d="M-8.4,296.9c-3.3-6.3,2.7-18.7,1.9-23" />
                  <path class="st1" d="M-8.4,296.9c2.5,0.4,4.9,1.9,6.8,3.8C-5.4,300.4-7.4,298.9-8.4,296.9z" />
                  <path class="st1" d="M-21.1,264.6c0.9,1.7,1.7,3.5,2.5,5.3c9.3,5.9,4.6,23.6,1,31.8c2.6-4.3,6-5.4,9.2-4.9" />
                  <path class="st1" d="M-26.4,279.2c1.4,13.5-13.6,16.3-23.8,14.1c4.5,3.2,3.4,9.6,5.9,14.3c2.9,5.3,5.3,9.1,6.2,15.3
                        c0.3,2.1,0.5,4.1,0.4,5.8c-0.1,1.4-0.4,2.6-1,3.7c-1,1.9-3,3.3-6.4,3.9c-4,0.7-14.2-0.1-12.7-5.7c1.3,0.1,1-0.9,1.7-1.3" />
                  <path class="st1" d="M58.5,216.2c-0.4-4-3-7.5-6.7-9" />
                  <path class="st1" d="M58.5,216.2c0,0.4,0,0.8,0.1,1.2C58.6,217,58.6,216.6,58.5,216.2z" />
                  <path class="st1" d="M66.8,190.7c-0.2,0-0.3-0.1-0.5-0.2c-0.3-0.3-0.6-0.5-0.3,0.2c0.1,0.1,0.2,0.2,0.2,0.2
                        c3.2,3.4,3.7,5.1,2.7,7.1c-0.7,1.3-2.1,2.7-3.9,4.7c-3.3,3.7-6.5,8.3-6.5,13.5" />
                  <path class="st1" d="M92.4,253.6c-0.1,0.2-0.2,0.3-0.2,0.5c-0.9,4.1,7.9,17,8.9,21.3c2.4,9.4,0,17.5-2.1,25.8
                        c-0.1,0.3-0.1,0.6-0.2,0.8c-3.8-11.4-9.7-16.2-21-18.9c-4.8-1.2-12.8-2.7-17.4-0.9c-6.4,2.6-8.5,11.7-10.6,17.2
                        c0.3-3.9,1.7-9.8-4-10.4c-0.2-0.5-0.2-1.1-0.1-1.7" />
                  <path class="st1" d="M30.1,289.1c1.7,1.3,1.7,4.3,3,6.3c1.4,2.2,3.3,3.1,5,5.4c2.4,3.1,2.8,14.1,4.7,15.5
                        c0.2,0.2,0.5,0.3,0.8,0.3c2.3,0.4,6.4-2.6,8.5-2.9c0.3-0.1,0.7-0.1,1-0.1c2.6,0,5.1,1,7.7,0.7c4.8-0.7,15.8-6.7,18-11.1" />
                  <path class="st1" d="M98.2,304.1c-0.2,0-0.4,0-0.6,0c-6,0-6.7,6.1-7.5,10.6c-1.1,5.9-3.3,8.5-6.6,13.7c-0.9,1.5-1.5,3-2,4.4
                        c-1,3-1.7,5.8-4.2,8.7c-4.8,5.6-8.7,5.5-15.1,7.5c-0.1-2.4,5.4-7.3,3.2-11.6" />
                  <path class="st1" d="M-51.9,389.8L-51.9,389.8c1.7-4.3,1.6-9-1.1-13.3c-2.9-4.8-6.5-11.6-12.4-12.3c0-1.4,0.1-2.8,0.5-4.2" />
                  <path class="st1" d="M-51.9,389.8c-0.3,4-3.9,6.6-7,8.7C-55.7,396.2-53.2,393.1-51.9,389.8z" />
                  <path class="st1" d="M-0.7,334.5c6.8-3.1,15-0.5,19.5,5.8c1.1,1.6,1.8,3.3,2.2,5.1c1.1,5.5-0.9,11.7-2.5,17
                        c-2.3,7.7-6.2,8.5-11.7,9.5c-2,0.4-4.1,0.7-6.4,1.4c-11.3,3.4-15.7,17.6-26.2,23c-0.6,0.3-1.2,0.6-1.8,0.8
                        c-7.1,2.8-13.8-0.1-19.7-4.1c-1.6-1.1-3.1-2.2-4.6-3.3l0,0v0.1" />
                  <path class="st1" d="M-74.4,374.2c0.3,2.1,1.2,4.2,2.7,5.8c-3.4,4.7-7.9,7.6-9.8,13.7c-1.9,6.1-1.5,13.8-1.2,20.4
                        c0.4,7.6,1.6,11.2,7.4,13.9c0.2,0.1,0.4,0.2,0.6,0.3c3.1,1.4,10.3,8.8,12.4,8" />
                  <path class="st1" d="M-74.4,374.2c-0.1-1.3-0.2-2.4-0.2-3.5C-74.7,371.9-74.6,373.1-74.4,374.2z" />
                  <path class="st1" d="M-77.5,357.2c-0.3,0.2-0.6,0.4-0.8,0.6c-5.2,4.1-7.3,8.5-7.3,13.1c0,4.9,2.4,10.1,5.9,15.3
                        c6-1,5.6-6.9,5.3-12" />
                  <path class="st1" d="M-41.9,417.1c0.9-3.2,1.5-7.7,2.6-10.1c0-0.1,0.1-0.1,0.1-0.2c1.8-3.4,5.3-3.8,8.6-6.2
                        c1.8-1.3,3.3-2.8,4.7-4.3c2.5-2.7,4.8-5.7,7.6-8.3c6.2-6,13.6-15.4,22.7-16.1c0.8-0.1,1.6-0.1,2.3,0
                        c6.2,0.4,11.1,4.4,11.3,10.4c0.1,1.4-0.1,2.9-0.6,4.5c-1.3,4.2-4.4,9.1-6.4,13c-1.2,2.3-5.8,6.5-5.9,7" />
                  <path class="st1" d="M-41.9,417.1c-2.5,4.1-6.7,7.3-11.7,7.6c3.9,1.1,7.7,0.4,11.2,2.9c-2.3-3.4-1.2-5.9,0.1-9.3
                        C-42.1,417.9-41.9,417.5-41.9,417.1z" />
                  <path class="st1" d="M-51.4,390.9c1.3,0.9,2.6,1.7,3.8,2.5c4.9,3.3,8.2,6.1,8.4,13.4c0,0.5,0,1,0,1.6c-0.1,3-1.1,6.1-2.7,8.7" />
                  <path class="st1" d="M4.5,385.7c-4.5,1.1-7.4,9.4-9.3,13.4c-1.1,2.4-3.2,5.5-4.1,8.2c-0.5,1.6-0.4,3.1-0.4,4.6
                        c0,1.3-0.1,2.6-0.7,3.8c-0.8,1.6-4.8,3.6-6.3,5c-2.4,2.3-4,5.1-6.5,7.4c-6.5,5.8-10.7,6-13.4,14.5c-2.8,9.1-8.4,12.3-18,11.8
                        c-0.6-2.1-1.3-4.1-1.6-6.2c0-0.1,0-0.2,0-0.3c-0.2-2.3,0.2-4.5,2.2-6.7c-0.5,1.7-1.2,3.3-1.7,4.9c-0.2,0.6-0.4,1.2-0.5,1.8
                        c-0.1,0.4-0.2,0.8-0.2,1.2c0.1-0.3,0.2-0.6,0.2-1c0.2-0.7,0.3-1.4,0.5-2.1c0.2-0.9,0.3-1.8,0.5-2.8" />
                  <path class="st1" d="M-75.5,428.2c-0.5,6.6-5.8,9.7-4.9,16.9c0.4,3.1,2,6.9,3.9,10.4l0,0c1.2,2.2,2.6,4.3,3.8,5.9
                        c3.5,4.8,8.4,8.6,14.4,9.8c3.9,0.8,7.2,0,10.2-1.6c1.9-1,3.6-2.3,5.3-3.8c2-1.8,3.9-3.8,5.8-5.7c7.3-7.4,15.7-9.2,15.4-21.3" />
                  <path class="st1" d="M-9.6,415.2c0.3,0.2,0.5,0.3,0.8,0.4c1.2,0.7,2.3,1.2,3.4,1.7c2.3,1.1,4.4,2.4,6.3,5.1
                        c1.8,2.7,6.8,10.7,7,13.8C8.2,441,1.8,447-1.4,450c-5,4.6-7.8,5-10.8,11.7c-0.2-1.6-0.3-3.6-0.1-5.2" />
                  <path class="st1" d="M-42.6,466c2.5,5.5,0.4,9.3,6.7,11.1c5.6,1.6,10.1-0.2,14.8-2.5c3.5-1.8,6.7-3.8,9.6-5.9
                        c4.7-3.4,9-7.3,13.6-11.3c1-0.8,2-1.7,3-2.5c0.7-0.6,1.4-1.2,2-1.9c4.3-4.5,7.5-11.1,6.1-17.1c9.9,0,24.8-0.8,25-13
                        c1.9,5.1,13.1-2.6,16.4-4.9c-0.4,0.4-0.8,0.7-1.3,1" />
                  <path class="st1" d="M19.7,382.2c11-6.2,19.9,0.8,22.4,10.8c0.3,1,0.5,2.1,0.6,3.2c1.7,15.4-7.1,16.4-18.2,23.3
                        c0.9-0.6,1.7-1.4,2.2-2.4" />
                  <path class="st1" d="M43.6,316.3c0,0.1,0,0.2,0,0.3c0,2.6,1.5,3,0.7,6.4c-0.8,3.5-2.8,6.8-4.9,9.7c-4.3,5.8-9,13.1-16.7,12.3" />
                  <path class="st1" d="M-40.9,372.9c0.9,0.3,5.7,6.4,6.4,9.7c-0.5-5.5,5.9-7.7,9.8-9.9c4.4-2.4,7-4.6,10-8.6" />
                  <path class="st1" d="M-5.9,346.7c6.3-0.9,7.7,4.3,12.2,6.4" />
                  <path class="st1" d="M61.6,209.9c1.2-5.9,12.6,10.3,14,8.7" />
                  <path class="st1" d="M82,228c-4.3-2.9-0.8-10.4-3.8-15.1c-2-3.3-5.8-13.6-8.4-14.6" />
                  <path class="st1" d="M81.4,334.5c0.1-0.6-0.1-1.1,0.1-1.7c4.6-2.4,7.4,7.6,10.1,10.4c0.9,0.9,1.8,1.6,2.6,2.3
                        c2.8,2.2,5.5,3.6,7.1,7.4c0.2,0.4,0.3,0.7,0.5,1.1c0.2-0.4,0.3-0.7,0.4-1c2.9-7.1-0.3-9.3-1-16.8c0.3,0.4,0.7,0.7,1.1,1
                        c0.3-6.2,4.9-35-2.8-35.9" />
                  <path class="st1" d="M62.2,346.7c-5.9,1.2-8.9-0.4-13.2,4.2c-2.7,2.9-4.6,6.6-6.4,9.7c3.1-5.6,0.3-9.2-5.1-11.6
                        c0.6,0.1,1,0.3,1.5,0.6" />
                  <path class="st1" d="M102.9,353.1c-0.2-0.1-0.4-0.1-0.7-0.1c-0.3,0-0.6,0-0.9-0.1c-0.2,0-0.4-0.1-0.6-0.3
                        c-0.8,11.9,3.7,22-2,33.7c-4.7,9.6-13.7,23.1-21.9,27.3" />
                  <path class="st1" d="M94.2,345.5c-12.3,2.1-9.9,21.1-9.9,29.7c0,10.6-7.1,23.9-17.7,23.9c-0.1,0-0.2,0-0.3,0" />
                  <path class="st1" d="M33.6,370c-0.6-7.5,8.9-5.8,9.4-12.9c0.9-0.8,0.1,0.4,0.5,0.7" />
                  <path class="st1" d="M68.3,373.9c-5.2,3.3-6.3,10.4,0.2,12.3c-3.2,0.6-6.5-0.1-9.2-1.7c0.1-0.7,0-1.3,0.3-2.2
                        c-3.2,1.7-3.7,4.4-6.1,6.5c-1.3,1.2-3,2-4.6,2.7c-1.7,0.6-3.3,1-4.8,1.3" />
                  <path class="st1" d="M68.3,373.9c-0.4-0.1-0.8-0.2-1.3-0.4c0.6,0,1.3,0.1,1.9,0C68.7,373.6,68.5,373.8,68.3,373.9z" />
                  <path class="st1" d="M44.1,369.4c-0.8-4,3.5-8.6,7-10.3c5.4-2.7,7.2,0.3,12.2,1.6c4.8,1.2,9.9-0.8,11.8,5.8
                        c1.3,4.6-2.4,8.3-6.8,7.4" />
                  <path class="st1" d="M-38.4,333c-0.1-0.2-0.1-0.4-0.2-0.6c-0.1-0.9,0.3-2.3,1-3.7c1.3-2.8,3.7-5.9,5.4-6.5" />
                  <path class="st1" d="M-76.9,455.7c-2.6,9-5,14.7,0.1,24c4,7.2,15.7,12.5,23.6,14.4c9.7,2.4,18.8-1.3,27.9-3.1
                        c9.2-1.8,18.7-3.7,26.8-9.3c4.6-3.2,9-8.4,8.1-14.6c-0.8-4.9-6.8-6.1-7.5-9.7c0-0.3-0.1-0.5-0.1-0.8" />
                  <path class="st1" d="M-10.2,475.4c-7.7,7.6-18.7,12.8-30.2,12.2c-5.8-0.3-9.7-1.3-9.3-7c0.2-2.4,2.8-8.3,4.1-10
                        c0.2-0.3,0.4-0.4,0.5-0.5" />
                  <path class="st1" d="M-10.2,475.4c0.5,0.9,1.2,1.8,1.9,2.7C-8.7,476.4-9.1,476.6-10.2,475.4C-10.1,475.3-10.2,475.4-10.2,475.4
                        z" />
                  <path class="st1" d="M-11.2,467.8c-0.1,0.3-0.2,0.6-0.3,0.9c-0.6,2.5,0,4.7,1.2,6.8" />
                  <path class="st1" d="M54.1,403.9c1.4-4-0.8-10.1-4.7-11.2" />
                  <path class="st1" d="M54.1,403.9c-0.3,0.4-0.5,0.9-0.7,1.4C53.7,404.9,53.9,404.4,54.1,403.9z" />
                  <path class="st1" d="M54.1,403.9L54.1,403.9" />
                  <path class="st1" d="M7.4,453.2c-6.2,5.6,6.4,15.2,11.1,16.3c8.5,2.1,18-1.2,22.7-8.4c2.8-4.3,3.8-7.1,8.2-10.7
                        c3.9-3.3,7.9-6,10.5-10.6c2.7-4.8,4.7-8.7,8.7-12.8c3.8-3.9,7.1-7.7,7.6-13.5c0-0.4,0-0.8,0-1.2c0-5.9-4.6-10.9-9.7-12.7
                        c-4.5-1.6-9.6-0.6-12.4,4.3" />
                  <path class="st1" d="M93.6,325.2c1.4,5.1,5.1,7.2,8.1,9.9" />
                  <path class="st1" d="M52.9,313.5c0.1,0,0.2,0.1,0.2,0.1c5.4,3.2,8,14.9,5.6,21.9c0-0.7,0.1-1.5,0-2.2" />
                  <path class="st1" d="M41.8,330.4c-0.5,5.7,2.5,10.5,6.9,14c0.1-0.6-0.1-1.2-0.5-1.7" />
                  <path class="st1" d="M37.1,172.7c3.1,5.2,4,9.6,4.1,15.7" />
                  <path class="st1" d="M-60.7,123.2c-4.6-4.3,2.3-9.8,1.7-15.1" />
                  <path class="st1" d="M12.7,123.8c0-7.1-2.1-13.2-3.4-19.6c0.7,0.6,0.2,0.9,0.5,1.6" />
                  <path class="st1" d="M47,172.1c0.1-0.2,0.3-0.3,0.4-0.4c3.4-2.8,9.9,6.3,12.4,7.4" />
                  <path class="st1" d="M14.6,123.3c7-13.5,16.1,11.6,18.9,15.8c3,4.5,7.1,8.2,10.4,12.2c2.6,3.2,4.5,10.6,6.6,12.1" />
                  <path class="st1" d="M27.2,396.8c-9.2-0.3-9.6,12.8-13.4,17.8s-12.9,4.7-19.2,2.8c-1.3-0.4-2.4-0.9-3.4-1.4c0-0.1,0-0.2,0-0.4
                        c0-1.2-0.3-2.5-0.5-3.7c-0.1-0.6-0.2-1.1-0.2-1.6" />
                  <path class="st1" d="M-135.7,139.6c0-1,0-1.8,0-2.7c0.1-6-0.4-8.8-6.3-11.8c-1-0.5-2.1-1-3.3-1.5c-3.8,3.8-3.6,9.9-9.3,12.1
                        c15.3-9.8-1.5-22.9-14.8-22.7c-2.1,0-4.1,0.4-5.9,1.2c-10.8,4.7-15.2,16.5-12.7,27.5c-4.1-1-9.3-4.4-8-8.6
                        c0.2-0.6,0.5-1.1,0.9-1.7" />
                  <path class="st1" d="M-135.7,140.2c0-0.2,0-0.4,0-0.6" />
                  <path class="st1" d="M-94.7,105c4.6-12.6,0.2-32.3-12.3-37.4c-5.9-2.4-21.9-2.5-26.5,3.9c-0.8,1.1-1.3,2.5-1.2,4.1
                        c0,1.4,0.5,3,1.4,4.8c5.8,0.1,12.1-4.5,16,1.1c-12.5-7.2-20.5,6.9-14.4,17.3c-8-3-14.6,13.1-13.4,19.6c0.6,3.1,1.8,5.1,3.1,6.8
                        c2.6,3.2,5.8,5.4,6.2,12.3c0,0.6,0.1,1.3,0.1,2.1" />
                  <path class="st1" d="M-143.9,87.7c0-0.5-0.1-1-0.1-1.5c-10.1-6.7-10.7,4.1-14.4,10.4c-4.1,6.8-11.7,5.2-11.1,15.6
                        c0-0.5,0-1.1,0-1.6" />
                  <path class="st1" d="M-143.9,87.7c0,0.4,0,0.7,0,1.1C-143.9,88.4-143.9,88.1-143.9,87.7z" />
                  <path class="st1" d="M-143.9,87.7L-143.9,87.7" />
                  <path class="st1" d="M-136.2,75.6c-3,1-5.2,3.7-6.5,6.8c-0.7,1.7-1.1,3.6-1.1,5.3" />
                  <path class="st1" d="M-120.7,212.2c1.8,1.1,3.8,1.8,5.9,2.3c1.3-4,2-9.2,0.7-13.2" />
                  <path class="st1" d="M-120.7,212.2c-0.3-0.2-0.5-0.3-0.8-0.5C-121.4,211.9-121,212.1-120.7,212.2z" />
                  <path class="st1" d="M-93.2,125.8C-93.2,125.8-93.1,125.8-93.2,125.8c3.7-0.1,3.6,6.6,3.6,9.2c0,5.8,1.7,16.2-3.4,20.3
                        c2.1,3.2,4.7,9.9,4.7,15c0,1.4-0.2,2.7-0.7,3.8c-1.1,2.7-4.1,3.5-4.7,6.2c-0.6,2.4,1.5,6.7,1.9,9.2c0.7,4.5,0,6.7-0.6,11.1
                        c-0.6,4.4,1.4,8,1.6,12.3c0.3,5,1.3,14.2-1.7,18.8c-0.2,0.4-0.5,0.7-0.8,1c-2.3-5.8-10.6-14.8-17.2-9.4
                        c0.7-6.8-5.7-8.1-10.2-11.1" />
                  <path class="st1" d="M-93.2,125.8c-2.3,3.5-5.1,6.6-7.4,8.9C-99,133-95.7,126-93.2,125.8z" />
                  <path class="st1" d="M-101.9,85.5c2.9,5.2-3.9,10.1-0.5,15.1c1.9,2.9,4.8,3.5,7.4,4.8c1.7,0.8,3.4,1.9,4.7,4
                        c2.9,4.7,0.7,11-3,16.5" />
                  <path class="st1" d="M-115.9,101.2c-3.6-5.9-15.2,9.1-16.4,12.8c-2.5,7.2-2.3,15.3-3.5,22.9c0,0.2-0.1,0.4-0.1,0.6
                        c-0.2,1.4-0.5,2.8-0.9,4.2c0.4-0.6,0.7-1.3,0.9-2.1l0,0c0.1-0.2,0.1-0.4,0.2-0.6" />
                  <path class="st1" d="M-115.9,136.2c0,7,1.3,16.3,10.9,18c-3.3,0.5-5.6-1.7-8.8-1.7c-3.5-0.1-4.9,1.3-7.7,3.1
                        c-6.3,3.9-8.2,3.9-15.3,2.8c-7.3-1.2-13.3-0.6-20.4,0.5c-3.6,0.5-7.4,0.2-10.4-1.3c-2.9-1.5-5-4.2-5.3-8.5
                        c-0.6-8.4,5.7-18.4-5.2-22.7" />
                  <path class="st1" d="M-94.9,179.8c-6-3.4-14.2,4.6-19.7,8.3c-7.2,4.9-12.7,3.6-20.5,6c0-0.4-0.1-0.7-0.1-1.1
                        c-1.6-13-12.8-19-24.9-21.4" />
                  <path class="st1" d="M-99.5,159.4c0.8,13.7-21,7.5-26.8,14" />
                  <path class="st1" d="M-104.7,110.5c2.9,4.9-2.8,8.3-6,11.1c-3.9,3.5-4.5,6-5.6,11" />
                  <path class="st1" d="M-166.6,197.1c-2.9-2.2-9.4,7-10.6,9.2c-1.5,2.7-3.9,5.9-4.5,9c-0.7,3.1,0.8,7-0.4,9.3" />
                  <path class="st1" d="M-166.6,197.1c0.5,1.2,1,2.3,1.4,3.5C-165.4,198.7-165.9,197.6-166.6,197.1z" />
                  <line class="st1" x1="-166.6" y1="197.1" x2="-166.6" y2="197.1" />
                  <path class="st1" d="M-167,157.1c-0.2,0.2-0.3,0.3-0.5,0.5c-0.5,0.6-0.9,1.2-1.3,1.7c-4.3,6.5-0.5,11.8,1.1,18.9
                        c0.1,0.7,0.2,1.3,0.2,1.9c0.1,3.5-1.6,6.9-1.2,10.2c0.2,2.4,1.2,4.6,2.1,6.8" />
                  <path class="st1" d="M-135,71.5c-4.6,1-6.8,3.8-10.9,6c-3.5,1.9-7.2,2.7-10.8,4.9c-5.9,3.6-12.4,5.3-16.3,10.8
                        c-0.9,1.3-1.7,2.8-2.2,4.5c0,0.7,0.3-0.4,0.6-0.6" />
                  <path class="st1" d="M-158.4,230.8c-0.4,3.5-1.3,6.7-3.1,8.4c-3.2,2.9-11.6,3.3-15.7,3.5c-9.5,0.5-31.6-13.6-29.1-25.7" />
                  <path class="st1" d="M-158.4,230.8c-0.8-5.1-0.5-10.3,1.1-13.7C-157.9,220.4-157.7,225.9-158.4,230.8z" />
                  <path class="st1" d="M-121.6,231.8c-8.4,3.9-4.6,14.7-9.9,21.8c-2.9,3.9-8.1,5.9-11.7,9.4c-3.3,3.3-3.9,6.9-6.2,10.5
                        c2.5-7.5-3.1-9.4-5.2-16c-1.5-4.6-1.2-11.8,4.8-12.6c-4.7-2.1-7.4-8-8.5-14.1" />
                  <path class="st1" d="M-121.6,231.8c0.7-0.2,1.4-0.4,2.1-0.8C-120.4,231.2-121,231.5-121.6,231.8z" />
                  <path class="st1" d="M-135,192.6c-0.1,0.1-0.1,0.3-0.2,0.4c-3.6,7.2-9.4,15.7-6.8,25.5c2.4,8.8,11.6,15.6,20.4,13.3" />
                  <path class="st1" d="M-186.1,173.4c-0.1-0.2-0.2-0.3-0.2-0.5c-15.6,2.4-16.1,20.2-19,31.9c8.8-0.2,11.6-9.8,18.9-13
                        c5.5-2.4,18.7-4.3,18.9-11.7c0-0.5,0-1-0.1-1.5" />
                  <path class="st1" d="M-186.1,173.4c0.5,1.5,1,2.8,1.7,3.9C-184.7,176.1-185.5,174.6-186.1,173.4z" />
                  <path class="st1" d="M-169.9,158.9c-3.2-4.2-13-1.9-15.6,2.3c-2.1,3.4-1.8,8.2-0.6,12.2" />
                  <path class="st1" d="M-196.1,133L-196.1,133c-0.2,0.3-1.6,5.4-1.7,6.9c-0.3,3-1,5.1,2.1,7.3c-8.2,0.8-13.9-1.6-18.3,7.1
                        c-2.7,5.4-6.8,10.9-7,17.1c3.4-3.2,6.8-2.2,9.8,0.8c3.9-4,6.3-10,11.8-12.7c2.4-1.2,3.7-1,6.3-1.3c1.3-0.1,6.4,0.7,4.1,0" />
                  <path class="st1" d="M-196.1,133.2c0-0.1,0-0.2,0-0.2" />
                  <path class="st1" d="M-174.6,93.7c-9.6,1.4-12.4,10.4-19.2,15.7c-3.1,2.4-6.8,3.8-9.9,6.5c-4.2,3.7-4.4,7.4-6.7,12.1
                        c-2.5,5.2-7.3,8.3-11.1,12.5c-4,4.5-6,10.5-7.2,16.3c-1.3,6.1-1.8,12.6-3.5,18.7c-0.3,1.1-1,2.3-1.9,3.6
                        c-2.5,3.4-6.3,7.1-6.3,10.1c0,0.6,0,1,0.1,1.4c0,0.2,0,0.3,0.1,0.4c0.6,2.7,2.9,0.2,6.1,0.4c5.3,0.5,5.3,3.2,8.7,7
                        c3.2,3.5,16.8,12.5,20,6.1" />
                  <path class="st1" d="M-188.4,270.9c-0.1-1-0.3-2-0.4-3" />
                  <path class="st1" d="M-188.4,270.9c0,0.6,0.1,1.2,0.2,1.8C-188.4,272.1-188.4,271.5-188.4,270.9z" />
                  <path class="st1" d="M-176.1,256.3c-0.5,4.2,3.2,7.2,7.6,10.4c-6.2-2-7.7-6.7-14.3-3.2c-2.9,1.5-5.6,4.2-5.6,7.4" />
                  <path class="st1" d="M-176.1,256.3c1.3-1.7,2.4-3.8,3.2-6.2C-174.9,252.5-175.9,254.5-176.1,256.3z" />
                  <path class="st1" d="M-119.9,318.6c2.9-1.3,6.1-1.3,9.1-0.5c1.6,0.4,3.3,1.1,4.8,2c4.5,2.5,8.4,6.7,10.3,11
                        c2.1,5.1,5.6,16.4,3.2,22c-1.3,3-3.2,3.9-5.5,3.9c-3.4,0-7.5-2.1-11-2.1c-6.7-0.1-12.3,7.1-18.5,3.5
                        c-6.9-4.1-8.1-11.3-18.1-10.4c-5.3,0.5-9.8,5.8-15.9,4.1c-7.4-2.1-7.1-10.8-10.6-17.1c-0.7-1.1-1.4-2.2-2.4-3.1
                        c-6.8-6.2-14.5-8-16.9-17.9c-2.5-10.1,8-14.9,8.1-24c-6.6-0.5-12.1,2-18.7-0.8c-0.7-0.3-1.3-0.6-1.9-0.9
                        c-5.8-3-8.3-7.8-10.8-14c-0.9-2.3-1.2-5.2-3.2-6.9c-3.1-2.5-6.1,0.1-9.7-2c-4.9-2.9-2.2-7.5-8.5-7.1c-0.7,0-5.6,2.2-6.7,2.5
                        c-2.4,0.7-6,1.5-8.5,1.7c-4.9,0.3-11.5-1.2-13.6-6c-0.3-0.7-0.6-1.5-0.7-2.4c-1.5-8,2.8-22.8,9.6-25.3
                        c-1.9,5.1,0.7,7.4,5.4,8.2c5.5,0.8,7-1.9,10.7-5.3c3.3-3.1,19.1-14.4,22-9.7c1.5,2.3-0.7,4.8-0.7,7.5c0,3.1,1.8,10.2,3.5,12.8
                        c3.8,5.6,12.8,9.7,17.5,14.6c7.3,7.6,16.2,6.5,21.5-0.6" />
                  <path class="st1" d="M-119.9,318.6c-1.1,0.8-2.4,1.6-3.6,2.4C-122.4,320-121,319.2-119.9,318.6z" />
                  <path class="st1" d="M-117.4,312.7c1.1,2.6-0.3,4.4-2.3,5.9" />
                  <path class="st1" d="M-117.4,312.7c-0.3-0.4-0.5-0.8-0.7-1.2C-117.9,311.9-117.6,312.3-117.4,312.7z" />
                  <path class="st1" d="M-117.4,312.7L-117.4,312.7" />
                  <path class="st1" d="M-92.5,231.6C-92.5,231.6-92.5,231.7-92.5,231.6c0,14.2,8.2,35.7-2.8,47.6c4.4,4.2,2.4,10.6,2.2,15.9
                        c-0.2,6.5,3,12.4,1.8,18.9c-1,5.7-5,8.6-10.3,7.3c-1.3-0.3-2.8-0.7-4.3-1.2c-1.6-0.5-3.2-1.2-4.8-2c-2.8-1.4-5.3-3.2-6.8-5.4" />
                  <path class="st1" d="M-106.5,245c-10.6,6.8-12.8,13.8-8.7,24.8c-6.1-4.1-15.7,1.9-18.8,7.6c0.4-0.9,0.4-1.8,0.6-2.7" />
                  <path class="st1" d="M-165.9,297c3.3-6.3-2.7-18.7-1.9-22.9" />
                  <path class="st1" d="M-165.9,297c-2.5,0.4-4.9,1.9-6.8,3.8C-168.9,300.5-166.9,299.1-165.9,297z" />
                  <path class="st1" d="M-153.1,264.8c-0.9,1.7-1.7,3.5-2.5,5.3c-9.3,5.9-4.6,23.6-1,31.8c-2.6-4.3-6-5.4-9.2-4.9" />
                  <path class="st1" d="M-147.9,279.4c-1.4,13.5,13.6,16.3,23.8,14.1c-4.5,3.2-3.4,9.6-5.9,14.3c-2.9,5.3-5.3,9.1-6.2,15.3
                        c-0.3,2.2-0.5,4.3-0.4,6.1c0.1,1.2,0.4,2.3,0.8,3.2c1,2,3,3.4,6.5,4.1c4,0.7,14.2-0.1,12.7-5.7c-1.3,0.1-1-0.9-1.7-1.3" />
                  <path class="st1" d="M-232.7,216.4c0.4-4,3-7.5,6.7-9" />
                  <path class="st1" d="M-232.7,216.4c0,0.4,0,0.8-0.1,1.2C-232.9,217.2-232.9,216.8-232.7,216.4z" />
                  <path class="st1" d="M-241.1,190.9c0.2,0,0.4-0.2,0.6-0.3c0.3-0.2,0.5-0.4,0.2,0.3c0,0.1-0.1,0.1-0.1,0.2
                        c-3.2,3.4-3.8,5.2-2.8,7.1c0.7,1.3,2.1,2.7,3.9,4.7c3.4,3.7,6.5,8.3,6.5,13.5" />
                  <path class="st1" d="M-266.6,253.7c0.1,0.2,0.2,0.3,0.2,0.5c0.9,4.1-7.9,17-8.9,21.3c-2.4,9.4,0.1,17.5,2.1,25.9
                        c0.1,0.2,0.1,0.5,0.2,0.7c3.8-11.4,9.7-16.2,21-18.9c4.8-1.2,12.8-2.7,17.4-0.9c6.4,2.6,8.5,11.7,10.6,17.2
                        c-0.3-3.9-1.7-9.8,4-10.4c0.2-0.5,0.2-1.1,0.1-1.7" />
                  <path class="st1" d="M-204.4,289.2c-1.7,1.3-1.7,4.3-3,6.3c-1.4,2.2-3.3,3.1-5,5.4c-2.4,3.1-2.8,14.1-4.7,15.5
                        c-0.2,0.1-0.4,0.3-0.7,0.3c-2.3,0.5-6.4-2.6-8.6-2.9c-0.3,0-0.5,0-0.8-0.1c-2.7-0.1-5.3,1-7.9,0.7c-4.8-0.7-15.8-6.7-18-11.1" />
                  <path class="st1" d="M-272.4,304.3c0.2,0,0.4,0,0.6,0c6,0,6.6,6.1,7.5,10.6c1.1,5.9,3.3,8.5,6.6,13.7c1,1.5,1.5,3,2,4.4
                        c1,3,1.7,5.8,4.2,8.7c4.8,5.6,8.7,5.5,15.1,7.5c0.1-2.4-5.4-7.3-3.2-11.6" />
                  <path class="st1" d="M-122.2,390L-122.2,390c-1.7-4.3-1.6-9,1.1-13.3c2.9-4.8,6.5-11.6,12.4-12.3c0-1.4-0.1-2.8-0.5-4.2" />
                  <path class="st1" d="M-122.2,390c0.3,4,3.9,6.6,7,8.7C-118.4,396.4-120.9,393.3-122.2,390z" />
                  <path class="st1" d="M-173.4,334.7c-6.8-3.1-15-0.5-19.5,5.8c-1,1.5-1.7,3-2.1,4.6c-1.3,5.6,0.7,12,2.4,17.5
                        c2.3,7.7,6.2,8.5,11.7,9.5c1.9,0.4,4.1,0.7,6.4,1.4c11.3,3.4,15.7,17.5,26.2,23c0.6,0.3,1.2,0.6,1.8,0.8c7,2.7,13.6,0,19.5-3.9
                        c1.6-1.1,3.2-2.3,4.8-3.5l0,0v0.1" />
                  <path class="st1" d="M-99.7,374.4c-0.3,2.1-1.1,4.2-2.6,5.8c3.4,4.7,7.9,7.6,9.8,13.7c1.9,6.1,1.5,13.8,1.2,20.4
                        c-0.4,7.6-1.6,11.2-7.4,13.9c-0.2,0.1-0.4,0.2-0.6,0.3c-3.1,1.4-10.3,8.8-12.4,8" />
                  <path class="st1" d="M-99.7,374.4c0.1-1.3,0.2-2.5,0.2-3.5C-99.4,372.1-99.5,373.3-99.7,374.4z" />
                  <path class="st1" d="M-96.6,357.4c0.2,0.1,0.4,0.3,0.5,0.4c5.4,4.2,7.5,8.5,7.6,13.1c0,5-2.4,10.1-5.9,15.5
                        c-6-1-5.6-6.9-5.3-12" />
                  <path class="st1" d="M-132.4,417.3c-0.9-3.2-1.5-7.7-2.6-10.1c0-0.1-0.1-0.1-0.1-0.2c-1.8-3.4-5.3-3.8-8.6-6.2
                        c-1.8-1.3-3.3-2.8-4.7-4.3c-2.5-2.7-4.8-5.6-7.6-8.3c-6.2-6-13.6-15.4-22.7-16.1c-0.8-0.1-1.6-0.1-2.3,0
                        c-6.2,0.4-11.1,4.4-11.3,10.4c-0.1,1.4,0.1,2.9,0.6,4.4c1.3,4.2,4.4,9.1,6.4,13c1.2,2.3,5.8,6.5,5.9,7" />
                  <path class="st1" d="M-132.4,417.3c2.5,4.1,6.7,7.3,11.7,7.6c-3.9,1.1-7.7,0.4-11.2,2.9c2.3-3.4,1.2-5.9-0.1-9.3
                        C-132,418.1-132.2,417.8-132.4,417.3z" />
                  <path class="st1" d="M-122.9,391.1c-1.4,0.9-2.7,1.8-4,2.6c-4.8,3.2-8,6.1-8.2,13.3c0,0.5,0,1,0,1.6c0.1,3,1.1,6,2.7,8.7" />
                  <path class="st1" d="M-178.7,385.9c4.5,1.1,7.4,9.4,9.3,13.4c1.1,2.4,3.2,5.5,4.1,8.2c0.5,1.5,0.4,3.1,0.4,4.5s0.1,2.7,0.7,3.9
                        c0.8,1.6,4.8,3.6,6.3,5c2.4,2.3,4,5.1,6.5,7.4c6.5,5.8,10.7,6,13.4,14.5c2.8,9.1,8.4,12.3,18,11.8c0.6-2.1,1.3-4.1,1.6-6.2
                        c0-0.1,0-0.2,0-0.3c0.2-2.3-0.2-4.5-2.2-6.7c0.5,1.6,1.2,3.3,1.7,4.9c0.2,0.6,0.4,1.2,0.5,1.8c0.1,0.4,0.2,0.8,0.2,1.2
                        c-0.1-0.3-0.2-0.6-0.2-1c-0.2-0.7-0.3-1.4-0.5-2.1c-0.2-0.9-0.4-1.8-0.5-2.8" />
                  <path class="st1" d="M-98.6,428.4c0.5,6.6,5.8,9.7,4.9,16.9c-0.4,3.1-2,7-3.9,10.4l0,0c-1.2,2.2-2.6,4.3-3.8,5.9
                        c-3.5,4.8-8.4,8.6-14.4,9.8c-4.7,0.9-8.6-0.4-12-2.6c-1.2-0.8-2.4-1.8-3.5-2.8c-2-1.8-3.9-3.8-5.8-5.7
                        c-7.3-7.4-15.7-9.2-15.4-21.3" />
                  <path class="st1" d="M-168.2,417.3c-2.5,1.2-4.8,2.4-6.9,5.4c-1.8,2.7-6.8,10.7-7,13.8c-0.3,4.8,6.1,10.8,9.3,13.8
                        c5,4.6,7.8,5,10.8,11.7c0.2-1.6,0.3-3.6,0.1-5.2" />
                  <path class="st1" d="M-164.6,415.4c-0.3,0.2-0.5,0.3-0.8,0.5c-1,0.5-1.9,1-2.8,1.4" />
                  <path class="st1" d="M-131.5,466.2c-2.5,5.5-0.4,9.3-6.7,11.1c-5.6,1.6-10.1-0.2-14.8-2.5c-3.6-1.8-6.8-3.8-9.8-6
                        c-4.6-3.4-8.9-7.3-13.5-11.2c-1-0.8-2-1.7-3-2.5c-0.7-0.6-1.4-1.2-2.1-1.9c-4.3-4.5-7.5-11-6-17.1c-9.9,0-24.8-0.8-25-13
                        c-1.9,5.1-13.1-2.6-16.4-4.9c0.4,0.4,0.8,0.7,1.3,1" />
                  <path class="st1" d="M-193.9,382.4c-11-6.2-19.9,0.9-22.4,10.8c-0.3,1-0.5,2.1-0.6,3.2c-1.7,15.4,7.1,16.4,18.2,23.3
                        c-0.9-0.6-1.7-1.4-2.2-2.4" />
                  <path class="st1" d="M-217.7,316.4c0,0.1,0,0.2,0,0.3c0,2.6-1.5,3-0.7,6.4c0.8,3.5,2.8,6.8,4.9,9.7c4.3,5.8,9,13.1,16.7,12.3" />
                  <path class="st1" d="M-133.4,373.1c-0.9,0.3-5.7,6.4-6.4,9.7c0.5-5.5-5.9-7.7-9.8-9.9c-4.4-2.4-7-4.6-10-8.6" />
                  <path class="st1" d="M-168.2,346.9c-6.3-0.9-7.7,4.3-12.2,6.4" />
                  <path class="st1" d="M-235.7,210.1c-1.2-5.9-12.6,10.3-14,8.7" />
                  <path class="st1" d="M-256.1,228.1c4.3-2.9,0.8-10.4,3.8-15.1c2-3.3,5.8-13.6,8.4-14.6" />
                  <path class="st1" d="M-255.6,334.7c-0.1-0.6,0.1-1.1-0.1-1.7c-4.6-2.4-7.4,7.6-10.1,10.4c-0.9,0.9-1.8,1.6-2.6,2.3
                        c-2.8,2.2-5.4,3.6-7.1,7.4c-0.2,0.4-0.3,0.7-0.5,1.2c-0.2-0.4-0.3-0.7-0.4-1.1c-2.9-7.1,0.3-9.3,1-16.8c-0.3,0.4-0.7,0.7-1.1,1
                        c-0.3-6.2-4.9-35,2.8-35.9" />
                  <path class="st1" d="M-236.4,346.9c5.9,1.2,8.9-0.4,13.2,4.2c2.7,2.9,4.6,6.6,6.4,9.7c-3.1-5.6-0.3-9.2,5.1-11.6
                        c-0.6,0.1-1,0.3-1.5,0.6" />
                  <path class="st1" d="M-277.1,353.3c0.3-0.1,0.5-0.1,0.8-0.1s0.6,0,0.9-0.1c0.2,0,0.3-0.1,0.5-0.3c0.8,11.9-3.7,22,2,33.7
                        c4.7,9.6,13.7,23.1,21.9,27.3" />
                  <path class="st1" d="M-268.4,345.7c12.3,2.1,9.9,21.1,9.9,29.7c0,10.7,7.3,24.2,18,23.9" />
                  <path class="st1" d="M-207.9,370.2c0.6-7.5-8.9-5.8-9.4-12.9c-0.9-0.8-0.1,0.4-0.5,0.7" />
                  <path class="st1" d="M-242.6,374.1c5.2,3.3,6.3,10.4-0.2,12.3c3.2,0.6,6.5-0.1,9.2-1.7c-0.1-0.7,0-1.3-0.3-2.2
                        c3.2,1.7,3.7,4.4,6.1,6.5c1.3,1.2,3,2,4.6,2.6c1.7,0.6,3.3,1,4.8,1.3" />
                  <path class="st1" d="M-242.6,374.1c0.4-0.1,0.8-0.2,1.3-0.4c-0.6,0-1.3,0.1-1.9,0C-242.9,373.8-242.7,374-242.6,374.1z" />
                  <path class="st1" d="M-218.4,369.6c0.8-4-3.5-8.6-7-10.3c-5.4-2.7-7.2,0.3-12.2,1.6c-4.8,1.2-9.9-0.8-11.8,5.8
                        c-1.3,4.6,2.4,8.3,6.8,7.4" />
                  <path class="st1" d="M-135.9,333.2c0.1-0.2,0.2-0.5,0.2-0.8c0-0.9-0.3-2-0.8-3.2c-1.3-2.9-3.8-6.2-5.5-6.8" />
                  <path class="st1" d="M-97.4,455.9c2.6,9,5,14.7-0.1,24c-4,7.2-15.7,12.5-23.6,14.4c-9.7,2.4-18.8-1.3-27.9-3.1
                        c-9.2-1.8-18.7-3.7-26.8-9.3c-4.6-3.2-9-8.4-8.1-14.6c0.8-4.9,6.8-6,7.5-9.7c0.1-0.3,0.1-0.5,0.1-0.8" />
                  <path class="st1" d="M-164,475.6c7.7,7.6,18.7,12.8,30.2,12.2c5.8-0.3,9.7-1.3,9.3-7c-0.2-2.7-3.6-10.1-4.6-10.5" />
                  <path class="st1" d="M-164,475.6c-0.5,0.9-1.2,1.8-1.9,2.7C-165.5,476.6-165.1,476.8-164,475.6L-164,475.6z" />
                  <path class="st1" d="M-163,468c0.1,0.3,0.2,0.5,0.2,0.8c0.7,2.5,0,4.7-1.2,6.9" />
                  <path class="st1" d="M-228.4,404.1c-1.4-4,0.8-10.1,4.7-11.2" />
                  <path class="st1" d="M-228.4,404.1c0.3,0.4,0.5,0.9,0.7,1.4C-227.9,405.1-228.1,404.6-228.4,404.1z" />
                  <path class="st1" d="M-228.4,404.1L-228.4,404.1" />
                  <path class="st1" d="M-181.6,453.4c6.2,5.6-6.4,15.2-11.1,16.3c-8.5,2.1-18-1.2-22.7-8.4c-2.8-4.3-3.8-7.1-8.2-10.7
                        c-3.9-3.3-7.9-6-10.5-10.6c-2.7-4.8-4.7-8.7-8.7-12.8c-3.8-3.9-7.1-7.7-7.6-13.5c0-0.4,0-0.8,0-1.2c0-6,4.7-11.1,10-12.8
                        c4.5-1.4,9.3-0.4,12.1,4.4" />
                  <path class="st1" d="M-267.7,325.3c-1.4,5.1-5.1,7.2-8.1,9.9" />
                  <path class="st1" d="M-227.1,313.7L-227.1,313.7c-5.6,3.1-8.3,14.9-5.8,22c0-0.7-0.1-1.5,0-2.2" />
                  <path class="st1" d="M-215.9,330.6c0.5,5.7-2.5,10.5-6.9,14c-0.1-0.6,0.1-1.2,0.5-1.7" />
                  <path class="st1" d="M-211.4,172.8c-3.1,5.2-4,9.6-4.1,15.7" />
                  <path class="st1" d="M-113.5,123.3c4.6-4.3-2.3-9.8-1.7-15.1" />
                  <path class="st1" d="M-186.9,123.9c0-7.1,2.1-13.2,3.4-19.6c-0.7,0.6-0.2,0.9-0.5,1.6" />
                  <path class="st1" d="M-221.2,172.2c-0.3-0.3-0.6-0.6-0.9-0.7c-3.5-1.7-9.5,6.6-11.9,7.7" />
                  <path class="st1" d="M-188.9,123.4c-7-13.5-16.1,11.6-18.9,15.8c-3,4.5-7.1,8.2-10.4,12.2c-2.6,3.2-4.5,10.6-6.6,12.1" />
                  <path class="st1" d="M-201.4,396.9c9.2-0.3,9.6,12.8,13.4,17.8c4,5.2,13.5,4.7,19.8,2.6l0,0c1-0.4,1.9-0.7,2.7-1.1
                        c0-0.1,0-0.2,0-0.2c0-1.3,0.3-2.6,0.5-3.8c0.1-0.6,0.2-1.1,0.2-1.6" />
                </g>
              </g>
            </g>
          </g>
        </g>
        <g id="skills">
          <polygon id="Bootstrap" class="st16" points="-24.4,395.5 -17.9,389.8 -11.9,383.1 -5.9,376.6 -0.8,373.7 6.7,371.9 11.1,370.9
        15.9,367.3 19.4,360.6 21.1,351.5 21.2,346.6 23.8,345 29.7,343.2 36.1,337.1 44.2,324.5 44.2,319.3 41.2,312.1 39,302.5
        34.9,297.5 31.8,292.8 30.6,289.6 31,288.2 26.8,289.1 17.1,290.1 12.4,290.1 11.1,290.1 9.2,290.6 9.5,291.4 9.9,294.1
        13.1,300.1 15.8,304.1 17.3,308.7 17.3,312.6 16,317.2 12.2,322.2 5.3,327.6 -1.7,334.3 -6.8,346.7 -10.8,351.2 -15.3,352.2
        -24.3,349.1 -30.4,347.8 -35.9,349 -45.3,357.2 -49.9,359.3 -53.8,359.2 -56,357.4 -63.2,355 -64.6,354.9 -65.4,355.8 -65.8,359.4
        -66.2,362.8 -63.5,364.6 -58.9,368.3 -55.8,371.9 -53,376.5 -51.1,380.8 -50.9,386.4 -51.9,389.7 -50.8,391.6 -47.3,393
        -41.9,396.8 -37.6,397.6 -33.5,397.6 -29.3,397.6     " />
          <polygon id="Photoshop" class="st17" points="-11,487.6 -11.7,487.8 -37.9,493.9 -45.3,495 -52.3,494.2 -64.4,489.9 -74,484 -79.1,474.3
        -79.8,469 -77,457 -78,451.5 -80.4,445.1 -77.4,434.5 -75.7,430.3 -74.7,428.3 -72.6,428.7 -71.4,430.4 -69.3,432.1 -66.3,434.5
        -62.9,436.3 -62.9,435.4 -62.9,433.8 -62.3,432 -61.8,429.6 -60.4,427.6 -58.3,425.5 -56.1,424.4 -53.7,423.9 -52.4,423.9
        -45.7,421.4 -42.3,418.3 -39.8,412.3 -39.2,406.8 -36.6,404.1 -34.8,403 -32.6,401.8 -31.3,399.9 -29.4,399.6 -28.6,400.2
        -28.9,401.9 -28.9,404.4 -28.9,405.3 -26.3,409.1 -23.6,413.2 -20.4,415.4 -15.4,417.1 -11,416.5 -7.3,415.7 -3.7,418.2 1.3,423.6
        3.4,426.3 5.7,430.5 7.9,436.2 7.9,439.3 6.3,441.3 4.5,443.8 0.1,447.9 -4.7,452.8 -8.8,456.3 -11,459.4 -11.2,464 -11.2,467.8
        -11,473.7 -9.2,476.9 -6,481.2 -4.7,483 -2.2,484     " />
          <polygon id="Electron" class="st4" points="-77.4,426.8 -80.5,423.8 -82.9,418.8 -82.9,413.1 -82.9,402 -81.5,393.7 -79,387.5
        -80.5,384.9 -84.5,379.5 -85.8,372 -85.6,366 -82.6,362.1 -78.3,357.8 -71.9,356.1 -68.9,355.3 -66.6,354.9 -64.8,354.3
        -65.4,355.8 -65.8,359.4 -66.2,360.6 -65.4,363.3 -61,366 -58.1,370 -56,372.4 -53.5,375.5 -51.9,379.8 -50.9,386.4 -51.9,389.7
        -52.1,390.9 -50.9,392.8 -42.6,396.7 -35.6,398.2 -32.1,398.1 -30.5,398.2 -28.4,397.6 -27.9,398.9 -29.4,399.6 -31.7,400.5
        -33.5,401.5 -38,403.9 -39.9,406.8 -40.9,411.4 -42.6,417.4 -47.7,422.2 -54.6,424.1 -56.8,424.8 -60,426.8 -61.8,429.6 -62.3,432
        -62.9,433.8 -63.4,434.5 -65.4,434.5 -68.7,432.6 -71.4,430.4 -73.9,428.7     " />
          <path id="Html" class="st5" d="M10.6,372.7l4.1,2.3l2.8,4.3l0.5,3l0.1,1.6l1.6-0.6l1.3-1.8l4.2-1.3l3.8-0.2l3.6,1.4l2.9,1.2l3,3
        l2.5,4l1.1,3.4l0.2,0.8l2.2-0.7l3.4-1.5l3,1.5l2.5,3.4l1,6.2h1.1l2.3-2.6l4.4-1l6.7,1.4l2.7,2.2l2.4,2.7l1.3,2.3l0.4,3.1l0.5,1.5
        l1.6,0.8l2.1-1.5l3.7-3.3l5.7-7.4l4.3-6.1l7.4-13.4l0.7-6.9L101,363l-0.3-8.9l2.4-4.7l0.2-4l-1.6-6.6l1.6-8.6l0.3-7.2l0.1-13.8
        l-1.7-6.2l-2.2-3.5l1.4-7.4l0.9-8.4l-1.4-8.6l-1.3-3.8l-3.5-6.6l-3-6.2l-1.1-1.4l-2,1.6l-2,0.9l-2.7,1.6l-4.6,1.2l-6.7-0.1l-3.2-1
        l-5.1-1.7l-3.1-1.2l-2.9,0.3l-2,1.1l-1.8,3.1l-2.4,1.9l-2.9,1.4l-4.9,0.2l-2.8,2.5l-3.7,8.5l-3.5,5.8l-1.8,2.3l-2.6,1.8l-0.6,2.4
        l1.1,3.3l3.3,5.3l4,4.4l1,3.4c0,0,1.2,5.9,1.2,6.2s0.7,2.7,0.7,2.7l2.3,4.6l0.3,4.6l-2.7,5l-5.7,8.2l-6.4,6.1l-7,2.2l-1.5,1.2
        l-0.2,6l-1.3,7.4l-3.8,7.3l-2.6,2.7l-2.2,0.9l-1.6,0.9L10.6,372.7z" />
          <g id="Css">
            <polygon class="st6" points="-11,416.5 -7.1,415.7 -3.7,418.2 -1.6,420.3 3,425.7 5.7,430.5 6.3,433.5 7.6,438.5 6.3,441.3
            3,445.2 0.1,447.9 -4.7,452.8 -7.1,454.5 -9.5,457.1 -11,459.4 -11.5,468.7 -11,473.7 -9.2,476.9 -4.7,483 -2.2,484 3,482
            7.9,475.5 9.8,470.3 9.7,467.1 11.9,465.8 14.7,467.8 22.7,470.3 31.3,470.1 39.6,464 44,456.6 53.8,446.8 59.9,439.8 68,428.4
            74.9,418.7 76.2,413.5 72.6,405.5 68,401.3 62.2,400.2 59.6,401.3 56.2,404.2 52.9,402.3 52,396.8 49.8,394.3 46.6,393.4
            42.7,396.2 39.6,390.9 36.4,385.7 33.6,382.8 31.3,381.3 28.6,381.3 25.9,381.3 23.5,381.3 21.3,382.6 18.8,384.6 17.8,385.7
            16.8,384.5 16.4,379.9 15.1,377 11.3,373.9 8.9,373.4 5.7,373.4 3,373.7 0.1,374.5 -4.7,376.9 -11,382.6 -14.7,386.1 -17.9,389.8
            -20.9,392.7 -23,394.5 -24.4,395.5 -25.9,396.3 -27.9,398.9 -28.9,400.8 -28.9,405.3 -25.9,409.8 -23.9,413.1 -20.1,415.7
            -15.4,417.1         " />
          </g>
          <polygon id="Javascript" class="st7" points="-56.9,189.5 -52.5,191.2 -46.7,192.5 -43.5,192.8 -41.9,193.3 -40.4,193.9
        -39.1,192.7 -38,190.2 -36.5,184.9 -34.2,181.6 -26.9,175.1 -22.6,173.8 -18.7,172.1 -15.8,171.4 -14.2,171.4 -10.7,171.1
        -8.9,171.1 -7.5,171.4 -6.6,172.1 -5.5,173.3 -6.4,178 -6.4,181.5 -4.9,183.9 -2.4,185.8 1.4,187.8 5.3,189.5 8,190.1 14,192.5
        17.9,195.9 22.4,200.4 27,203.2 29.9,204.6 32.5,205.9 35.9,206.7 40.3,205.6 48.3,201.1 52.6,196.9 54.7,194.1 57.5,192
        61.6,191.4 63.9,191.9 66.1,192.5 66.9,191.7 67.7,190.2 66.1,187 64.3,184.2 61.6,180.8 58.6,177.1 56.7,169.5 55.6,164.9
        54.2,159.4 53.6,156.9 52.5,152.5 51.3,147.7 50.5,144.7 41.2,134.5 35.6,126.2 31.2,117.3 27.4,114 19.7,109.2 10.3,99 3.9,93.5
        -0.5,92.9 -4.7,89.3 -10.1,85.5 -22.5,79.9 -32.7,74.4 -40.5,70.1 -47.9,67.1 -55.1,66.2 -61.2,66.2 -67.2,67.5 -72.5,71.4
        -78,78.7 -80.4,88 -80.9,99.2 -80,103 -80.3,105.7 -83.2,108.1 -85.2,110.5 -85.2,114.1 -84.5,118.2 -82.8,122.6 -82.2,125.9
        -83.4,128.6 -84.5,133.2 -85.2,138.2 -85.2,141.4 -84.2,148 -82.5,153.6 -81.1,155.1 -84.5,162.9 -85.3,168.3 -85.6,171.6 -84,176
        -81.3,178.9 -80.4,180.1 -77.2,178.9 -73.9,179.1 -69.6,180.9 -64.6,184.2     " />
          <polygon id="Jquery" class="st8" points="86.1,260.9 80.2,262.4 72.1,261.9 66.2,259.8 62,258.2 58.5,258.9 56.8,261.4 55.1,263.9
        50.5,266.1 45.6,266.3 42.3,269.3 39.7,276.5 33.8,285.4 26.8,289.1 17.1,290.1 11.1,290.1 9.2,290.6 -3.4,300.7 -9.4,296.9
        -12.7,296.9 -15.9,299.3 -16.4,300 -13.5,287 -13.4,279.2 -16.2,271.7 -19.5,267.8 -22.8,263.5 -19.5,257.4 -18.7,252 -20,247.4
        -24.3,244.8 -19.4,240.4 -17,235.4 -16.2,226.3 -16.6,220.7 -17,217 -8.9,200.4 -7.1,195.6 -5.9,192.5 -5.5,190.1 -5.5,185.5
        -2.7,185.7 0.3,187.3 5.4,189.3 13.7,192.5 18.6,196.5 23.4,201.1 27,203.2 32.2,205.5 34.5,206.7 37.1,206 42.6,204.6 51.4,198.4
        56.4,192.5 60.1,191.4 63.9,191.8 67.5,192.3 68.6,193.9 69.3,196.9 71.8,200.4 76.6,209.5 79.4,216.2 79.6,223 80.1,226
        81.8,228.6 86.2,232.2 90.5,241.6 91.8,249 91.4,254 89.7,257.6   " />
          <polygon id="AngularJs" class="st9" points="-15.9,297.9 -15,293.7 -13.5,287 -13.4,279.2 -16.2,271.7 -22.8,263.5 -19.5,257.4
        -18.7,252 -20,247.4 -24.3,244.8 -19.4,240.4 -17,235.4 -16.2,226.3 -17,217 -7.1,195.6 -5.5,190.1 -5.5,185.5 -6.7,180.5
        -6.5,178.4 -5.8,175.1 -5.5,174.3 -6.6,172.1 -9.8,171.6 -14.2,171.4 -18.7,172.1 -25.9,174.9 -33.1,180.5 -36.5,184.9 -38,190.2
        -39.1,192.7 -41.9,193.3 -45.6,192.6 -52.5,191.2 -59.7,187.9 -69.6,180.9 -73.9,179.1 -77.2,178.9 -79.6,180.5 -81.3,185.4
        -82.6,192.6 -82.6,196.6 -81.6,202.9 -81.5,206.7 -83,210.4 -83.4,214.5 -83.7,220.9 -83.5,225.4 -82.5,229.7 -81.9,234.3
        -82.3,239.3 -83.3,243.1 -84.1,247.3 -84.5,252 -84.5,257.3 -84.5,263.5 -84.5,268.5 -82.6,272.9 -80.9,276.5 -79.9,277.8
        -78.8,279.1 -80,280.5 -80.9,281.9 -81.2,283.1 -81.1,296.9 -82.6,305.5 -82.8,313.9 -81.7,317.2 -79.7,319.8 -77.9,320.9
        -74.2,321.3 -72.5,321.2 -71.8,321.3 -71.7,322.2 -72.5,323 -74.6,325 -78.6,331 -81.5,340.3 -82.4,348.2 -81.8,353 -79.9,355.7
        -77.6,356.9 -71.3,355.8 -66.6,354.9 -63.2,355 -59.6,356.1 -56,357.4 -53.8,359.2 -50.8,359.2 -46.8,358.3 -43.3,355.5
        -35.4,348.7 -32.2,347.9 -28.7,347.9 -24.3,349.1 -19.3,351.2 -15.3,352.2 -10.8,351.2 -8.4,349.1 -5.9,344.7 -4.2,339.7
        -1.7,334.3 2.1,330.1 13.8,320.9 17.2,313.9 17.5,309.5 15.8,304.1 11.2,296 9.2,290.6 -1.6,299.2 -4.1,300.2 -6.9,298.8
        -9.4,296.9 -12.7,296.9 -14.7,298.4 -15.9,300.7 -17.2,300.7  " />
          <polygon id="Git" class="st10" points="-130.6,68.3 -141.5,74.5 -155,81.5 -168.7,89 -173,93.2 -180.9,96.1 -190.1,105.7
        -203.7,115.9 -209.4,125.3 -215.5,134.5 -224.7,144.9 -227.7,152.6 -230,163.4 -231.3,171.2 -232.3,175.5 -229.6,175.4
        -224.1,171.4 -221.1,171.4 -218.8,163.4 -214,154.3 -211.1,150.1 -206.4,147.8 -199,147.4 -195.7,147.2 -198.1,142.8 -197,137.3
        -194,138.7 -191.7,140.2 -188,141.7 -188.6,134.7 -187.4,127.3 -184.4,121.9 -180.9,117.7 -175.3,114.2 -170.8,114 -169.4,113
        -169.2,108.1 -166.6,103.8 -161,99.7 -156.9,93.5 -155.1,88.6 -151.8,84.7 -148,83.9 -145.6,85.3 -144,86.2 -142.2,81.3 -140,78
        -134.5,73.5     " />
          <path id="Php" class="st11" d="M-104.6,68.8c-1.3-0.9-5.6-2.6-5.6-2.6l-4.2-0.1l-4.8,0.1l-7.2,1.2l-4.3,0.9l-2.9,3.2l-2.7,4.1
        l-3.8,2.4l-2.1,3.3l-1.8,4.9l-1.6-0.9l-3.5-1.2l-2.8,0.6l-2.3,2.7l-2.8,6.1l-3,4.6l-4.6,4.2l-3.2,3.4l-1.7,4.9v2.4l-3.6,1.1
        l-5.4,2.1l-3.9,3.3l-3.8,5.6l-1.7,5.2l-0.6,5.6v3.6l0.4,2.3l-3.6-1.5l-2.3-1.5l-2.9-3l-1.3,1.6l0.2,2.6l-0.3,2.9l2.4,4.4l-3.2,0.2
        l-3.4,0.2l-5.2,0.8l-3.5,1.8l-4.1,6.2l-2.2,4.2l-2.3,5.7l-1.4,5.1l-3.7,1.3l-4.9,2.6l-3.1,2.9l-4.2,4.4l-3.5,6.6l-3.1,6.7l-4.6,8.4
        l-3.4,7.2l-2,5.6l-0.3,5.4l-0.9,4l-1.3,2.3v3l1.6,3.9l2.3,1l4,0.5l5.4-2.6l10.5-8.4l4.6-2.7l3.7-1.7l4-0.8l2.6-0.5l2.9-0.4l4.5-0.6
        l2.4,0.4l1.3,1.1l0.9,2.9l1.6,3.3l3.3,3.7l4.2,3.7l3.1,2.2l4.9,2.9l4.8,1.7l4.3,1.3l5.4,0.1l5-0.9l5.4-1.8l3.2-2.6l1.4-4l0.4-5.4
        l0.3-5.7l0.2-4l1.4-2l4.9-3.8l5-3.8l4.2-3.2l3.6-6.1l1.6-2.7l1.8-2.7l1.9-0.7l2.3-0.5l4.6-0.7l8.8-2.7l2.9-1.4l5.3-3.8l4.8-3.1
        l4.3-1.9l4.7-0.2l3-0.9l3-2.7l1.1-3.3v-4.2l-1.9-7.6l-1.5-3.3l-0.2-2.7l2-4.2l0.7-8.5l-0.2-6.7l-0.3-4.8l-0.9-2.9l-1.6-1.5l1.9-5
        l1.5-5l-0.6-5.4l-3.3-3.9l-1.1-5.1L-94,98l0.4-9.1l-2.8-9.8l-3.4-5.6C-99.5,73.4-103.1,69.7-104.6,68.8z" />
          <polygon id="MongoDb" class="st11" points="-191.9,380.1 -187,373.9 -184.1,372.7 -187.4,370.2 -192.6,362.6 -193.9,355.8
        -195.4,349.2 -198.3,345.2 -205.5,342.4 -210.1,337.6 -213.6,332.8 -217.8,325.7 -218.8,320.9 -215.9,313.7 -214.9,309.4
        -213.4,303 -209.6,297 -206.1,292.1 -205.2,287.5 -209.3,284.4 -213.8,276.5 -216.5,269.4 -218.8,266.9 -222.9,266.1 -227.6,265.4
        -230.4,262.3 -233.8,258.5 -240.5,259.8 -248.1,261.9 -254.4,262.3 -260.2,261 -264.1,257.7 -265.6,254.1 -266.9,257.4
        -270.2,264.8 -274.6,273.5 -275.8,280.6 -275.8,290.1 -274.4,297 -273.1,302.1 -271.8,304.3 -268.9,304.9 -266.8,307.9 -265.6,312
        -264.3,314.9 -262,321.5 -258.2,326.8 -256.2,331.6 -251.5,341.7 -246.8,345.7 -241.3,347.8 -232.4,347.4 -225.3,349.2
        -220.6,354.3 -215.2,360.8 -209.3,365.7 -207.8,368.1 -201.5,380.1 -195.5,381.6 -192.3,382.5  " />
          <polygon id="Mysql" class="st11" points="-276.7,304.3 -277.9,309.8 -278.1,317.6 -278.1,325.3 -276.7,332.4 -276.4,338.4
        -277.1,344.6 -277.2,349.2 -275.9,354.3 -274.9,358.2 -275.8,370.2 -275.9,375.1 -275.8,379.8 -274.2,383.5 -271.8,389.9
        -263.4,402.6 -259.3,407 -253.2,412.5 -251.8,412.5 -250.1,411.4 -249.1,407 -247.1,404.1 -243.9,401.4 -238.8,399.3 -233.9,399.3
        -230.6,400.2 -228.9,400.2 -228,397.4 -226.2,394.7 -224.8,393.4 -222.9,392.9 -220.3,392.4 -217.1,392.9 -215.9,392 -215.1,389.9
        -213.5,386.9 -212.8,385.8 -210.6,383.5 -209.3,382.5 -205.5,380.6 -203.6,380.1 -201.5,380.1 -208.6,368.9 -210.9,365.9
        -212.8,363.6 -215.2,361.5 -218.4,359.3 -220.3,357 -223.7,352.1 -228.4,348.4 -231.3,347.4 -238.6,347.7 -243.2,347.3
        -247.7,345.2 -252.1,340.4 -253.4,337.6 -256.6,330.6 -260.8,323.1 -263.3,318.6 -264.7,312.7 -265.6,309.3 -266.9,306.6
        -269.6,304.3 -271.8,303 -274.8,301.9 -276.4,302.9   " />
          <polygon id="Symfony" class="st12" points="-261.2,233.5 -264.4,242.7 -265.6,248.8 -265.6,254.1 -263.4,258.5 -261.2,260.4
        -258.2,261.8 -253.1,262.4 -249.7,262.1 -241,260.1 -238.2,259 -236.1,258.3 -233.8,258.5 -231.8,260.7 -230.4,262.3 -228.7,264.5
        -226.1,265.8 -222.1,266.1 -218.8,266.9 -215.6,270.9 -214.6,274.2 -213,277.9 -211.4,280.5 -210.2,283.1 -207.5,286.2
        -205.3,287.5 -203,288.6 -199.8,289.6 -197.2,290.1 -194.3,290.1 -191,290.1 -188.6,289.2 -188.2,286.8 -188.2,283.3 -188.3,280.5
        -188.3,276.6 -188.6,273.5 -187.6,267.9 -185.8,265.5 -182.8,263.5 -178.8,262.2 -176.1,261.2 -175.7,259.3 -175.7,257.3
        -174.5,255.3 -173.7,252.1 -172.9,250.1 -172.1,247.8 -169.3,245 -169.3,243.3 -170.2,242.2 -174.6,242.5 -178.4,242.7
        -183.2,241.5 -186.4,240.4 -192.3,237.1 -198.3,232.7 -201.9,229 -205.4,223.8 -205.3,222.3 -205.3,220.8 -205.3,219.9
        -205.3,218.9 -205.3,218 -205.8,217.1 -206.5,216.4 -207.5,216.4 -219.8,220.2 -223,221.3 -225,222.3 -229.3,224.6 -231.1,225.3
        -234.8,227.6 -238.6,230.8 -241.9,233.6 -245.2,235.7 -247.5,236.8 -250,236.6 -253.1,235.9 -254.9,234.7 -255.8,233.1
        -256.6,231.7 -257.4,230.3 -258.6,230.2 -259.6,230.9 -260.5,231.9    " />
          <polygon id="Laravel" class="st13" points="-170.2,242.2 -168,241.7 -166.6,241.5 -162.4,239.3 -160.3,237.6 -158.9,233.6
        -158.5,228.2 -158.8,220.9 -156.6,216.5 -142.8,205.9 -140.9,204.6 -135.5,194.2 -126.1,192.1 -119.8,190.6 -113.4,187.2
        -104.9,181.3 -101.9,179.9 -99.2,179 -96.4,179.2 -95.4,180.8 -94,183.3 -92.4,187.8 -91.9,189.5 -91.5,193.1 -92,197.2
        -92.5,200.6 -92.1,203.6 -89.6,224 -91.6,229.8 -92.3,236.7 -91.2,245 -89.6,257.9 -90.4,269.1 -93.3,276.5 -94.2,280.5
        -92.5,286.7 -93.1,295.1 -91.1,310.4 -92.4,317.3 -95.3,320.2 -96,320.9 -99.9,321 -101.6,321.3 -100.2,323.5 -95.4,332.4
        -93.7,336.7 -92.7,340.8 -91.7,348.4 -92.1,351.7 -94.7,354.2 -98.4,356.2 -102.3,356.4 -108.7,355.5 -111.9,355.2 -118.4,358
        -122.5,359.2 -127.5,358.4 -135.7,351.8 -140.8,348.4 -146.5,348 -152.6,350.3 -158,352.3 -163.6,351 -166.6,348.2 -169.1,342.9
        -172.1,336.1 -175.2,331.7 -184.2,324.7 -190.4,317.2 -192.3,312.6 -191,307.4 -187.5,300.5 -185.7,297 -184.3,294.8 -183.6,292.5
        -183.6,290.8 -184.2,289.8 -186.3,289.8 -186.9,290.1 -187.7,290 -188.1,290.1 -188.6,289.2 -188.4,288 -188.4,286.4 -188.3,284.6
        -188.3,277.8 -188.6,273.5 -187.6,267.9 -185.8,265.5 -182.8,263.5 -176.1,261.2 -175.7,257.3 -174.5,255.3 -173.7,252.1
        -172.1,247.8 -169.3,245 -169.3,243.3    " />
          <polygon id="NodeJs" class="st14" points="-154.9,389.7 -162.5,382.7 -170.5,375.3 -174.6,373.5 -182.6,372.7 -187.5,370.4
        -191.4,366 -193.4,358.3 -195.1,350.7 -196.8,347.3 -198.3,345.2 -206.2,341.6 -213.2,333.5 -217.8,325.7 -218.4,319.9 -216,313.7
        -214,305.2 -212.4,300.9 -210.6,298.9 -207.4,295.5 -206.1,292.1 -205.4,289.9 -203.9,289.4 -202,289.2 -199.8,289.6 -194.3,290.1
        -191,290.1 -186.3,289.8 -183.3,290 -183.6,292.5 -184.3,294.8 -185.7,297 -187.5,300.5 -189.6,304.2 -191.4,309 -192.2,311.9
        -191.1,315.5 -188.8,319.1 -186.9,322.2 -182.2,326.6 -175.2,331.7 -172.1,335 -170.8,338.4 -168.2,345.3 -166.3,349 -161.5,352.1
        -159,352.4 -154.8,351.5 -148.3,349.2 -146.5,348 -142.6,348.2 -140.8,348.4 -137,349.8 -133.7,353.5 -130.7,356.6 -127.5,358.4
        -124,359.7 -119.7,359.2 -116.2,357.3 -111.9,355.2 -110,355 -105.8,355.8 -103,356.3 -98,357 -95.2,358.8 -93.7,360.6
        -90.3,365.7 -88.8,371.3 -89.3,375.5 -92.5,383.1 -94.8,387.2 -93.6,391.4 -92.5,393.9 -91.3,401.5 -91.3,409 -91.3,414.3
        -92.7,422.5 -96.2,426.8 -101.4,429.8 -120.7,424.9 -126.4,423.2 -130.5,419.7 -133.5,415.2 -135.1,408.6 -136.4,405.1
        -138.8,403.4 -143.7,400.8 -148.3,396.5 -153.4,391.3     " />
          <polygon id="ExpressJs" class="st15" points="-155.8,489.8 -164,487.7 -172.2,484.1 -181.1,476.9 -183.2,473.2 -184,470.3
        -183.9,467.3 -183.2,464.5 -189,468 -192.7,469.7 -198.2,470.3 -203.3,469.7 -207.8,468 -214,463.3 -220.9,453.2 -230.7,444.5
        -238.5,432.7 -244.4,425.4 -249.1,418.8 -250.5,413.7 -250.1,411.4 -249.1,407 -247.1,404.1 -243.9,401.4 -240.5,399.7
        -238.2,399.3 -235.6,399.1 -232.8,399.9 -230,400.2 -228.5,399.1 -228,397.4 -226.2,394.7 -223.7,392.9 -220.3,392.4 -218.4,392.9
        -215.9,392 -215,389.2 -213.5,386.9 -211.2,384.3 -207.9,381.5 -205.5,380.6 -200.2,380.2 -195.5,381.6 -193.9,382.4 -192,381.2
        -191.9,380.1 -190,377.7 -187,373.9 -184.1,372.7 -182.6,372.7 -174.6,373.5 -170.5,375.3 -165,380 -157.3,387.3 -153.4,391.3
        -146.7,397.5 -143.7,400.8 -138.8,403.4 -136.4,405.1 -135.1,408.6 -133.5,415.2 -129,421.3 -120.7,424.9 -111,427.3 -104.4,429
        -101.4,429.8 -99.6,430.9 -96.7,434.7 -94.2,440 -93.6,442.6 -93.7,445.3 -96.4,452.4 -96.5,458.8 -95,464.5 -95,472.8
        -99.5,482.8 -108.8,489.6 -121.1,494.3 -133.4,494.9 -149,491.2   " />
        </g>
        <script xlink:href="../js/hover.js" />
        <script>brainHover()</script>
      </svg>
